<svg width="33" height="33" viewBox="0 0 33 33" fill="none" xmlns="http://www.w3.org/2000/svg">
<g clip-path="url(#clip0_8266_4631)">
<g clip-path="url(#clip1_8266_4631)">
<path d="M9.72299 13.0734L7.43699 8.97336C7.30799 8.74236 7.38799 8.45036 7.60499 8.31636C7.82299 8.18236 8.10999 8.25936 8.23399 8.49036L10.55 12.6454C12.318 11.8084 14.306 11.3434 16.446 11.3434C18.586 11.3434 20.574 11.8084 22.341 12.6454L24.658 8.49036C24.787 8.25936 25.069 8.18236 25.292 8.31636C25.515 8.45036 25.59 8.74236 25.46 8.97336L23.174 13.0734C27.112 15.2834 29.781 19.4144 30.222 24.2504H2.66699C3.10799 19.4144 5.77699 15.2834 9.72299 13.0734ZM22.771 20.2454C23.411 20.2454 23.927 19.7084 23.927 19.0494C23.927 18.3864 23.408 17.8524 22.771 17.8524C22.132 17.8524 21.616 18.3894 21.616 19.0494C21.613 19.7054 22.132 20.2454 22.771 20.2454ZM10.12 20.2454C10.76 20.2454 11.276 19.7084 11.276 19.0494C11.276 18.3864 10.757 17.8524 10.12 17.8524C9.48099 17.8524 8.96499 18.3894 8.96499 19.0494C8.96199 19.7054 9.48299 20.2454 10.12 20.2454Z" fill="white"/>
</g>
</g>
<defs>
<clipPath id="clip0_8266_4631">
<rect width="33" height="32" fill="white" transform="translate(0 0.14336)"/>
</clipPath>
<clipPath id="clip1_8266_4631">
<rect width="32" height="32" fill="white" transform="translate(0 0.14336)"/>
</clipPath>
</defs>
</svg>
