<svg width="32" height="33" viewBox="0 0 32 33" fill="none" xmlns="http://www.w3.org/2000/svg">
<g clip-path="url(#clip0_8266_4624)">
<g clip-path="url(#clip1_8266_4624)">
<path d="M15.967 9.21536C15.967 9.21536 15.608 7.63536 17.011 5.78736C18.587 3.71036 20.778 3.69836 20.778 3.69836C20.778 3.69836 21.105 5.65336 19.536 7.53236C17.866 9.54636 15.967 9.21536 15.967 9.21536ZM22.543 16.4144C22.543 13.1954 25.136 11.8714 25.136 11.8714C25.136 11.8714 23.808 9.47136 20.439 9.47136C18.48 9.47136 16.975 10.5864 16.164 10.5864C15.218 10.5864 13.811 9.53836 11.991 9.53836C9.20105 9.53836 6.22205 12.0404 6.22205 16.8084C6.22205 21.6544 9.74105 27.6874 12.527 27.6874C13.5 27.6874 14.993 26.7064 16.499 26.7064C17.976 26.7064 19.064 27.6514 20.466 27.6514C23.516 27.6514 25.778 21.2924 25.778 21.2924C25.778 21.2924 22.543 20.0434 22.543 16.4144Z" fill="white"/>
</g>
</g>
<defs>
<clipPath id="clip0_8266_4624">
<rect width="32" height="32" fill="white" transform="translate(0 0.14336)"/>
</clipPath>
<clipPath id="clip1_8266_4624">
<rect width="32" height="32" fill="white" transform="translate(0 0.14336)"/>
</clipPath>
</defs>
</svg>
