<svg width="47" height="47" viewBox="0 0 47 47" fill="none" xmlns="http://www.w3.org/2000/svg">
<g clip-path="url(#clip0_8266_4745)">
<path d="M28.73 45.0995L20.2821 38.6997L22.1617 26.376L30.6074 32.7754L28.73 45.0995Z" fill="url(#paint0_radial_8266_4745)"/>
<path d="M18.581 43.6375L10.1331 37.2377L3.151 28.3503L11.5989 34.7501L18.581 43.6375Z" fill="url(#paint1_radial_8266_4745)"/>
<path d="M11.599 34.7519L3.1511 28.3522L15.1771 17.4919L23.6254 23.8895L11.599 34.7519Z" fill="url(#paint2_radial_8266_4745)"/>
<path d="M13.8801 11.3166L5.43181 4.919L37.1748 5.22108L45.6205 11.6205L13.8801 11.3166Z" fill="url(#paint3_radial_8266_4745)"/>
<g style="mix-blend-mode:multiply">
<path opacity="0.01" d="M23.6249 23.89L8.23428 32.2047L3.15061 28.3527L15.1766 17.4924L23.6249 23.89Z" fill="#F7F9F7"/>
<path opacity="0.03" d="M23.6249 23.89L8.08002 32.0863L3.15061 28.3527L15.1766 17.4924L23.6249 23.89Z" fill="#EFF3F0"/>
<path opacity="0.04" d="M23.6246 23.8885L7.9232 31.966L3.15028 28.3512L15.1766 17.4887L23.6246 23.8885Z" fill="#E6EDE8"/>
<path opacity="0.05" d="M23.6249 23.89L7.76893 31.8512L3.15061 28.3527L15.1766 17.4924L23.6249 23.89Z" fill="#DEE8E0"/>
<path opacity="0.06" d="M23.6249 23.89L7.61245 31.7324L3.15061 28.3527L15.1766 17.4924L23.6249 23.89Z" fill="#D6E2D8"/>
<path opacity="0.08" d="M23.6246 23.8885L7.45785 31.6124L3.15028 28.3512L15.1766 17.4887L23.6246 23.8885Z" fill="#CEDCD1"/>
<path opacity="0.09" d="M23.6249 23.89L7.30137 31.4973L3.15061 28.3527L15.1766 17.4924L23.6249 23.89Z" fill="#C5D6C9"/>
<path opacity="0.1" d="M23.6246 23.8885L7.14677 31.3774L3.15028 28.3512L15.1766 17.4887L23.6246 23.8885Z" fill="#BDD0C1"/>
<path opacity="0.12" d="M23.6249 23.89L6.99029 31.2622L3.15061 28.3527L15.1766 17.4924L23.6249 23.89Z" fill="#B5CAB9"/>
<path opacity="0.13" d="M23.6249 23.89L6.83602 31.1437L3.15061 28.3527L15.1766 17.4924L23.6249 23.89Z" fill="#ADC5B2"/>
<path opacity="0.14" d="M23.6249 23.89L6.67954 31.0249L3.15061 28.3527L15.1766 17.4924L23.6249 23.89Z" fill="#A5BFAA"/>
<path opacity="0.15" d="M23.6249 23.89L6.52493 30.9087L3.15061 28.3527L15.1766 17.4924L23.6249 23.89Z" fill="#9CB9A2"/>
<path opacity="0.17" d="M23.6249 23.89L6.36845 30.7898L3.15061 28.3527L15.1766 17.4924L23.6249 23.89Z" fill="#94B39A"/>
<path opacity="0.18" d="M23.6249 23.89L6.21385 30.6736L3.15061 28.3527L15.1766 17.4924L23.6249 23.89Z" fill="#8CAD93"/>
<path opacity="0.19" d="M23.6246 23.8885L6.05704 30.5533L3.15028 28.3512L15.1766 17.4887L23.6246 23.8885Z" fill="#84A78B"/>
<path opacity="0.21" d="M23.6246 23.8885L5.90277 30.4348L3.15028 28.3512L15.1766 17.4887L23.6246 23.8885Z" fill="#7BA283"/>
<path opacity="0.22" d="M23.6249 23.89L5.74629 30.3197L3.15061 28.3527L15.1766 17.4924L23.6249 23.89Z" fill="#739C7B"/>
<path opacity="0.23" d="M23.6249 23.89L5.59202 30.2012L3.15061 28.3527L15.1766 17.4924L23.6249 23.89Z" fill="#6B9674"/>
<path opacity="0.25" d="M23.6249 23.89L5.43554 30.0824L3.15061 28.3527L15.1766 17.4924L23.6249 23.89Z" fill="#63906C"/>
<path opacity="0.26" d="M23.6249 23.89L5.28094 29.9661L3.15061 28.3527L15.1766 17.4924L23.6249 23.89Z" fill="#5A8A64"/>
<path opacity="0.27" d="M23.6249 23.89L5.12445 29.8473L3.15061 28.3527L15.1766 17.4924L23.6249 23.89Z" fill="#52845C"/>
<path opacity="0.28" d="M23.6249 23.89L4.96985 29.7311L3.15061 28.3527L15.1766 17.4924L23.6249 23.89Z" fill="#4A7F55"/>
<path opacity="0.3" d="M23.6246 23.8885L4.81304 29.6108L3.15028 28.3512L15.1766 17.4887L23.6246 23.8885Z" fill="#42794D"/>
<path opacity="0.31" d="M23.6249 23.89L4.6591 29.4938L3.15061 28.3527L15.1766 17.4924L23.6249 23.89Z" fill="#3A7345"/>
<path opacity="0.32" d="M23.6249 23.89L4.50229 29.3772L3.15061 28.3527L15.1766 17.4924L23.6249 23.89Z" fill="#316D3D"/>
<path opacity="0.34" d="M23.6249 23.89L4.34802 29.2587L3.15061 28.3527L15.1766 17.4924L23.6249 23.89Z" fill="#296736"/>
<path opacity="0.35" d="M23.6249 23.89L4.1912 29.1421L3.15061 28.3527L15.1766 17.4924L23.6249 23.89Z" fill="#21612E"/>
<path opacity="0.36" d="M23.6249 23.89L4.03694 29.0236L3.15061 28.3527L15.1766 17.4924L23.6249 23.89Z" fill="#195C26"/>
<path opacity="0.37" d="M23.6249 23.89L3.88045 28.9048L3.15061 28.3527L15.1766 17.4924L23.6249 23.89Z" fill="#10561E"/>
<path opacity="0.39" d="M23.6249 23.89L3.72585 28.7885L3.15061 28.3527L15.1766 17.4924L23.6249 23.89Z" fill="#085017"/>
<path opacity="0.4" d="M23.6249 23.89L3.56937 28.6697L3.15061 28.3527L15.1766 17.4924L23.6249 23.89Z" fill="#004A0F"/>
</g>
<path d="M11.9803 23.7784L3.53455 17.379L5.4323 4.91959L13.8806 11.3172L11.9803 23.7784Z" fill="url(#paint4_radial_8266_4745)"/>
<path d="M13.879 11.3233L45.6131 11.6241L40.4922 45.2142L28.7224 45.1032L30.5998 32.7792L18.5801 43.6426L11.598 34.7552L23.6244 23.8928L11.9791 23.7823L13.879 11.3233ZM31.9405 24.0216L31.9019 23.9772L31.9484 23.9842L31.9417 24.0285" fill="url(#paint5_radial_8266_4745)"/>
</g>
<defs>
<radialGradient id="paint0_radial_8266_4745" cx="0" cy="0" r="1" gradientUnits="userSpaceOnUse" gradientTransform="translate(22.9579 68.7228) rotate(8.55863) scale(40.1272 40.1934)">
<stop stop-color="#8DE6CF"/>
<stop offset="0.32" stop-color="#007B5D"/>
<stop offset="0.79" stop-color="#00664A"/>
<stop offset="1" stop-color="#005136"/>
</radialGradient>
<radialGradient id="paint1_radial_8266_4745" cx="0" cy="0" r="1" gradientUnits="userSpaceOnUse" gradientTransform="translate(24.385 21.1418) rotate(8.55863) scale(26.0894 26.1324)">
<stop stop-color="#B9EFE1"/>
<stop offset="0.32" stop-color="#8DE6CF"/>
<stop offset="0.79" stop-color="#007B5D"/>
<stop offset="1" stop-color="#00664A"/>
</radialGradient>
<radialGradient id="paint2_radial_8266_4745" cx="0" cy="0" r="1" gradientUnits="userSpaceOnUse" gradientTransform="translate(-1.13513 42.6137) rotate(8.55863) scale(32.8899 32.9442)">
<stop stop-color="#8DE6CF"/>
<stop offset="0.32" stop-color="#007B5D"/>
<stop offset="0.79" stop-color="#00664A"/>
<stop offset="1" stop-color="#005136"/>
</radialGradient>
<radialGradient id="paint3_radial_8266_4745" cx="0" cy="0" r="1" gradientUnits="userSpaceOnUse" gradientTransform="translate(50.768 3.98929) rotate(8.55863) scale(59.3242 59.4221)">
<stop stop-color="#B9EFE1"/>
<stop offset="0.13" stop-color="#B9EFE1"/>
<stop offset="0.29" stop-color="#60CEB2"/>
<stop offset="0.47" stop-color="#038061"/>
<stop offset="0.66" stop-color="#006A4E"/>
<stop offset="0.85" stop-color="#015A3E"/>
<stop offset="1" stop-color="#015136"/>
</radialGradient>
<radialGradient id="paint4_radial_8266_4745" cx="0" cy="0" r="1" gradientUnits="userSpaceOnUse" gradientTransform="translate(18.9506 0.303713) rotate(8.55863) scale(35.6151 35.6739)">
<stop stop-color="#8DE6CF"/>
<stop offset="0.34" stop-color="#007B5D"/>
<stop offset="0.79" stop-color="#00664A"/>
<stop offset="1" stop-color="#005136"/>
</radialGradient>
<radialGradient id="paint5_radial_8266_4745" cx="0" cy="0" r="1" gradientUnits="userSpaceOnUse" gradientTransform="translate(56.391 6.93597) rotate(8.55863) scale(50.0537 50.1363)">
<stop stop-color="#E5F7F3"/>
<stop offset="0.13" stop-color="#B9EFE1"/>
<stop offset="0.29" stop-color="#22B18E"/>
<stop offset="0.47" stop-color="#22B18E"/>
<stop offset="0.66" stop-color="#007B5D"/>
<stop offset="0.85" stop-color="#00664A"/>
<stop offset="1" stop-color="#005136"/>
</radialGradient>
<clipPath id="clip0_8266_4745">
<rect width="40.7609" height="40.7609" fill="white" transform="translate(6.06677 0.54541) rotate(8.55863)"/>
</clipPath>
</defs>
</svg>
