<svg width="63" height="64" viewBox="0 0 63 64" fill="none" xmlns="http://www.w3.org/2000/svg">
<g clip-path="url(#clip0_8266_4788)">
<path d="M18.0512 1.03542L32.3208 8.81138L32.283 27.9263L18.0168 20.1503L18.0512 1.03542Z" fill="url(#paint0_radial_8266_4788)"/>
<path d="M33.7728 0.936683L48.0424 8.71264L60.6571 20.595L46.3875 12.819L33.7728 0.936683Z" fill="url(#paint1_radial_8266_4788)"/>
<path d="M46.3875 12.817L60.6571 20.593L44.9008 39.8042L30.6311 32.0317L46.3875 12.817Z" fill="url(#paint2_radial_8266_4788)"/>
<path d="M48.276 48.8705L62.5457 56.643L14.3462 63.4285L0.0799949 55.6525L48.276 48.8705Z" fill="url(#paint3_radial_8266_4788)"/>
<g style="mix-blend-mode:multiply">
<path opacity="0.01" d="M30.631 32.0309L52.0698 15.9116L60.657 20.5923L44.9007 39.8035L30.631 32.0309Z" fill="#F7F9F7"/>
<path opacity="0.03" d="M30.631 32.0309L52.3307 16.056L60.657 20.5923L44.9007 39.8035L30.631 32.0309Z" fill="#EFF3F0"/>
<path opacity="0.04" d="M30.631 32.0309L52.5951 16.2004L60.657 20.5923L44.9007 39.8069L30.631 32.0309Z" fill="#E6EDE8"/>
<path opacity="0.05" d="M30.631 32.0309L52.8561 16.3415L60.657 20.5923L44.9007 39.8035L30.631 32.0309Z" fill="#DEE8E0"/>
<path opacity="0.06" d="M30.631 32.0309L53.1205 16.4859L60.657 20.5923L44.9007 39.8035L30.631 32.0309Z" fill="#D6E2D8"/>
<path opacity="0.08" d="M30.631 32.0309L53.3814 16.6303L60.657 20.5923L44.9007 39.8069L30.631 32.0309Z" fill="#CEDCD1"/>
<path opacity="0.09" d="M30.631 32.0309L53.6458 16.7714L60.657 20.5923L44.9007 39.8035L30.631 32.0309Z" fill="#C5D6C9"/>
<path opacity="0.1" d="M30.631 32.0309L53.9067 16.9158L60.657 20.5923L44.9007 39.8069L30.631 32.0309Z" fill="#BDD0C1"/>
<path opacity="0.12" d="M30.631 32.0309L54.1711 17.0568L60.657 20.5923L44.9007 39.8035L30.631 32.0309Z" fill="#B5CAB9"/>
<path opacity="0.13" d="M30.631 32.0309L54.432 17.2013L60.657 20.5923L44.9007 39.8035L30.631 32.0309Z" fill="#ADC5B2"/>
<path opacity="0.14" d="M30.631 32.0309L54.6964 17.3457L60.657 20.5923L44.9007 39.8035L30.631 32.0309Z" fill="#A5BFAA"/>
<path opacity="0.15" d="M30.631 32.0309L54.9574 17.4867L60.657 20.5923L44.9007 39.8035L30.631 32.0309Z" fill="#9CB9A2"/>
<path opacity="0.17" d="M30.631 32.0309L55.2218 17.6311L60.657 20.5923L44.9007 39.8035L30.631 32.0309Z" fill="#94B39A"/>
<path opacity="0.18" d="M30.631 32.0309L55.4827 17.7722L60.657 20.5923L44.9007 39.8035L30.631 32.0309Z" fill="#8CAD93"/>
<path opacity="0.19" d="M30.631 32.0309L55.7471 17.9166L60.657 20.5923L44.9007 39.8069L30.631 32.0309Z" fill="#84A78B"/>
<path opacity="0.21" d="M30.631 32.0309L56.008 18.061L60.657 20.5923L44.9007 39.8069L30.631 32.0309Z" fill="#7BA283"/>
<path opacity="0.22" d="M30.631 32.0309L56.2724 18.2021L60.657 20.5923L44.9007 39.8035L30.631 32.0309Z" fill="#739C7B"/>
<path opacity="0.23" d="M30.631 32.0309L56.5334 18.3465L60.657 20.5923L44.9007 39.8035L30.631 32.0309Z" fill="#6B9674"/>
<path opacity="0.25" d="M30.631 32.0309L56.7977 18.4909L60.657 20.5923L44.9007 39.8035L30.631 32.0309Z" fill="#63906C"/>
<path opacity="0.26" d="M30.631 32.0309L57.0587 18.632L60.657 20.5923L44.9007 39.8035L30.631 32.0309Z" fill="#5A8A64"/>
<path opacity="0.27" d="M30.631 32.0309L57.3231 18.7764L60.657 20.5923L44.9007 39.8035L30.631 32.0309Z" fill="#52845C"/>
<path opacity="0.28" d="M30.631 32.0309L57.584 18.9174L60.657 20.5923L44.9007 39.8035L30.631 32.0309Z" fill="#4A7F55"/>
<path opacity="0.3" d="M30.631 32.0309L57.8484 19.0618L60.657 20.5923L44.9007 39.8069L30.631 32.0309Z" fill="#42794D"/>
<path opacity="0.31" d="M30.631 32.0309L58.1093 19.2063L60.657 20.5923L44.9007 39.8035L30.631 32.0309Z" fill="#3A7345"/>
<path opacity="0.32" d="M30.631 32.0309L58.3737 19.3473L60.657 20.5923L44.9007 39.8035L30.631 32.0309Z" fill="#316D3D"/>
<path opacity="0.34" d="M30.631 32.0309L58.6347 19.4917L60.657 20.5923L44.9007 39.8035L30.631 32.0309Z" fill="#296736"/>
<path opacity="0.35" d="M30.631 32.0309L58.899 19.6327L60.657 20.5923L44.9007 39.8035L30.631 32.0309Z" fill="#21612E"/>
<path opacity="0.36" d="M30.631 32.0309L59.16 19.7772L60.657 20.5923L44.9007 39.8035L30.631 32.0309Z" fill="#195C26"/>
<path opacity="0.37" d="M30.631 32.0309L59.4244 19.9216L60.657 20.5923L44.9007 39.8035L30.631 32.0309Z" fill="#10561E"/>
<path opacity="0.39" d="M30.631 32.0309L59.6853 20.0626L60.657 20.5923L44.9007 39.8035L30.631 32.0309Z" fill="#085017"/>
<path opacity="0.4" d="M30.631 32.0309L59.9497 20.2071L60.657 20.5923L44.9007 39.8035L30.631 32.0309Z" fill="#004A0F"/>
</g>
<path d="M48.3139 29.5422L62.5801 37.3181L62.5457 56.6428L48.2761 48.8703L48.3139 29.5422Z" fill="url(#paint4_radial_8266_4788)"/>
<path d="M48.2761 48.8595L0.0903397 55.645L0.189912 3.54506L18.0613 1.02759L18.0269 20.1425L33.773 0.927859L46.3877 12.8102L30.6313 32.0248L48.3138 29.5349L48.2761 48.8595ZM17.9926 33.7272L18.0613 33.7857L17.9892 33.7857L17.9892 33.7169" fill="url(#paint5_radial_8266_4788)"/>
</g>
<defs>
<radialGradient id="paint0_radial_8266_4788" cx="0" cy="0" r="1" gradientUnits="userSpaceOnUse" gradientTransform="translate(21.4126 -36.1007) rotate(-180) scale(61.5283 61.6299)">
<stop stop-color="#8DE6CF"/>
<stop offset="0.32" stop-color="#007B5D"/>
<stop offset="0.79" stop-color="#00664A"/>
<stop offset="1" stop-color="#005136"/>
</radialGradient>
<radialGradient id="paint1_radial_8266_4788" cx="0" cy="0" r="1" gradientUnits="userSpaceOnUse" gradientTransform="translate(30.1058 36.3704) rotate(-180) scale(40.0037 40.0697)">
<stop stop-color="#B9EFE1"/>
<stop offset="0.32" stop-color="#8DE6CF"/>
<stop offset="0.79" stop-color="#007B5D"/>
<stop offset="1" stop-color="#00664A"/>
</radialGradient>
<radialGradient id="paint2_radial_8266_4788" cx="0" cy="0" r="1" gradientUnits="userSpaceOnUse" gradientTransform="translate(63.9018 -2.0092) rotate(-180) scale(50.4312 50.5145)">
<stop stop-color="#8DE6CF"/>
<stop offset="0.32" stop-color="#007B5D"/>
<stop offset="0.79" stop-color="#00664A"/>
<stop offset="1" stop-color="#005136"/>
</radialGradient>
<radialGradient id="paint3_radial_8266_4788" cx="0" cy="0" r="1" gradientUnits="userSpaceOnUse" gradientTransform="translate(-5.98357 68.3981) rotate(-180) scale(90.9637 91.1139)">
<stop stop-color="#B9EFE1"/>
<stop offset="0.13" stop-color="#B9EFE1"/>
<stop offset="0.29" stop-color="#60CEB2"/>
<stop offset="0.47" stop-color="#038061"/>
<stop offset="0.66" stop-color="#006A4E"/>
<stop offset="0.85" stop-color="#015A3E"/>
<stop offset="1" stop-color="#015136"/>
</radialGradient>
<radialGradient id="paint4_radial_8266_4788" cx="0" cy="0" r="1" gradientUnits="userSpaceOnUse" gradientTransform="translate(43.1018 66.7265) rotate(-180) scale(54.6098 54.7)">
<stop stop-color="#8DE6CF"/>
<stop offset="0.34" stop-color="#007B5D"/>
<stop offset="0.79" stop-color="#00664A"/>
<stop offset="1" stop-color="#005136"/>
</radialGradient>
<radialGradient id="paint5_radial_8266_4788" cx="0" cy="0" r="1" gradientUnits="userSpaceOnUse" gradientTransform="translate(-15.1819 65.2128) rotate(-180) scale(76.749 76.8757)">
<stop stop-color="#E5F7F3"/>
<stop offset="0.13" stop-color="#B9EFE1"/>
<stop offset="0.29" stop-color="#22B18E"/>
<stop offset="0.47" stop-color="#22B18E"/>
<stop offset="0.66" stop-color="#007B5D"/>
<stop offset="0.85" stop-color="#00664A"/>
<stop offset="1" stop-color="#005136"/>
</radialGradient>
<clipPath id="clip0_8266_4788">
<rect width="62.5" height="62.5" fill="white" transform="translate(62.5801 63.4294) rotate(-180)"/>
</clipPath>
</defs>
</svg>
