<svg width="32" height="33" viewBox="0 0 32 33" fill="none" xmlns="http://www.w3.org/2000/svg">
<g clip-path="url(#clip0_9000_10589)">
<g clip-path="url(#clip1_9000_10589)">
<path d="M15.9672 9.57218C15.9672 9.57218 15.6082 7.99218 17.0112 6.14418C18.5872 4.06718 20.7782 4.05518 20.7782 4.05518C20.7782 4.05518 21.1052 6.01018 19.5362 7.88918C17.8662 9.90318 15.9672 9.57218 15.9672 9.57218ZM22.5432 16.7712C22.5432 13.5522 25.1362 12.2282 25.1362 12.2282C25.1362 12.2282 23.8082 9.82818 20.4392 9.82818C18.4802 9.82818 16.9752 10.9432 16.1642 10.9432C15.2182 10.9432 13.8112 9.89518 11.9912 9.89518C9.20117 9.89518 6.22217 12.3972 6.22217 17.1652C6.22217 22.0112 9.74117 28.0442 12.5272 28.0442C13.5002 28.0442 14.9932 27.0632 16.4992 27.0632C17.9762 27.0632 19.0642 28.0082 20.4662 28.0082C23.5162 28.0082 25.7782 21.6492 25.7782 21.6492C25.7782 21.6492 22.5432 20.4002 22.5432 16.7712Z" fill="#212121"/>
</g>
</g>
<defs>
<clipPath id="clip0_9000_10589">
<rect width="32" height="32" fill="white" transform="translate(0 0.5)"/>
</clipPath>
<clipPath id="clip1_9000_10589">
<rect width="32" height="32" fill="white" transform="translate(0 0.5)"/>
</clipPath>
</defs>
</svg>
