<svg width="33" height="33" viewBox="0 0 33 33" fill="none" xmlns="http://www.w3.org/2000/svg">
<g clip-path="url(#clip0_9000_10596)">
<g clip-path="url(#clip1_9000_10596)">
<path d="M9.72299 13.4302L7.43699 9.3302C7.30799 9.0992 7.38799 8.8072 7.60499 8.6732C7.82299 8.5392 8.10999 8.6162 8.23399 8.8472L10.55 13.0022C12.318 12.1652 14.306 11.7002 16.446 11.7002C18.586 11.7002 20.574 12.1652 22.341 13.0022L24.658 8.8472C24.787 8.6162 25.069 8.5392 25.292 8.6732C25.515 8.8072 25.59 9.0992 25.46 9.3302L23.174 13.4302C27.112 15.6402 29.781 19.7712 30.222 24.6072H2.66699C3.10799 19.7712 5.77699 15.6402 9.72299 13.4302ZM22.771 20.6022C23.411 20.6022 23.927 20.0652 23.927 19.4062C23.927 18.7432 23.408 18.2092 22.771 18.2092C22.132 18.2092 21.616 18.7462 21.616 19.4062C21.613 20.0622 22.132 20.6022 22.771 20.6022ZM10.12 20.6022C10.76 20.6022 11.276 20.0652 11.276 19.4062C11.276 18.7432 10.757 18.2092 10.12 18.2092C9.48099 18.2092 8.96499 18.7462 8.96499 19.4062C8.96199 20.0622 9.48299 20.6022 10.12 20.6022Z" fill="#212121"/>
</g>
</g>
<defs>
<clipPath id="clip0_9000_10596">
<rect width="33" height="32" fill="white" transform="translate(0 0.5)"/>
</clipPath>
<clipPath id="clip1_9000_10596">
<rect width="32" height="32" fill="white" transform="translate(0 0.5)"/>
</clipPath>
</defs>
</svg>
