<svg width="25" height="25" viewBox="0 0 25 25" fill="none" xmlns="http://www.w3.org/2000/svg">
<path d="M18.1589 0.216797H6.17115C2.8593 0.216797 0.165039 3.03074 0.165039 6.48969V17.9439C0.165039 21.4029 2.8593 24.2168 6.17115 24.2168H18.1589C21.4708 24.2168 24.165 21.4029 24.165 17.9439V6.48969C24.165 3.03074 21.4708 0.216797 18.1589 0.216797ZM2.28381 6.48969C2.28381 4.25129 4.02795 2.42967 6.17115 2.42967H18.1589C20.3021 2.42967 22.0463 4.25129 22.0463 6.48969V17.9439C22.0463 20.1823 20.3021 22.0039 18.1589 22.0039H6.17115C4.02795 22.0039 2.28381 20.1823 2.28381 17.9439V6.48969Z" fill="white"/>
<path d="M12.1651 18.0506C15.2448 18.0506 17.7518 15.4337 17.7518 12.2157C17.7518 8.99775 15.2462 6.38086 12.1651 6.38086C9.08397 6.38086 6.57837 8.99775 6.57837 12.2157C6.57837 15.4337 9.08397 18.0506 12.1651 18.0506ZM12.1651 8.59515C14.0775 8.59515 15.633 10.2197 15.633 12.2171C15.633 14.2145 14.0775 15.8391 12.1651 15.8391C10.2526 15.8391 8.69714 14.2145 8.69714 12.2171C8.69714 10.2197 10.2526 8.59515 12.1651 8.59515Z" fill="white"/>
<path d="M18.2689 7.32296C19.0982 7.32296 19.7742 6.61841 19.7742 5.75084C19.7742 4.88326 19.0996 4.17871 18.2689 4.17871C17.4383 4.17871 16.7637 4.88326 16.7637 5.75084C16.7637 6.61841 17.4383 7.32296 18.2689 7.32296Z" fill="white"/>
</svg>
