<svg width="125" height="137" viewBox="0 0 125 137" fill="none" xmlns="http://www.w3.org/2000/svg">
<rect x="0.982666" y="56.5705" width="5.6083" height="6.18415" rx="2.80415" fill="#3865F3" fill-opacity="0.15"/>
<rect x="0.982666" y="0.91217" width="5.6083" height="6.18415" rx="2.80415" fill="#3865F3" fill-opacity="0.15"/>
<rect x="17.8082" y="56.5705" width="5.6083" height="6.18415" rx="2.80415" fill="#3865F3" fill-opacity="0.15"/>
<rect x="17.8082" y="0.91217" width="5.6083" height="6.18415" rx="2.80415" fill="#3865F3" fill-opacity="0.15"/>
<rect x="34.6337" y="56.5705" width="5.6083" height="6.18415" rx="2.80415" fill="#3865F3" fill-opacity="0.15"/>
<rect x="34.6337" y="0.91217" width="5.6083" height="6.18415" rx="2.80415" fill="#3865F3" fill-opacity="0.15"/>
<rect x="51.4569" y="56.5705" width="5.6083" height="6.18415" rx="2.80415" fill="#3865F3" fill-opacity="0.15"/>
<rect x="51.4569" y="0.91217" width="5.6083" height="6.18415" rx="2.80415" fill="#3865F3" fill-opacity="0.15"/>
<rect x="68.2825" y="56.5705" width="5.6083" height="6.18415" rx="2.80415" fill="#3865F3" fill-opacity="0.15"/>
<rect x="68.2825" y="0.91217" width="5.6083" height="6.18415" rx="2.80415" fill="#3865F3" fill-opacity="0.15"/>
<rect x="85.1079" y="56.5705" width="5.6083" height="6.18415" rx="2.80415" fill="#3865F3" fill-opacity="0.15"/>
<rect x="85.1079" y="0.91217" width="5.6083" height="6.18415" rx="2.80415" fill="#3865F3" fill-opacity="0.15"/>
<rect x="101.933" y="56.5705" width="5.6083" height="6.18415" rx="2.80415" fill="#3865F3" fill-opacity="0.15"/>
<rect x="101.933" y="0.91217" width="5.6083" height="6.18415" rx="2.80415" fill="#3865F3" fill-opacity="0.15"/>
<rect x="118.757" y="56.5705" width="5.6083" height="6.18415" rx="2.80415" fill="#3865F3" fill-opacity="0.15"/>
<rect x="118.757" y="0.91217" width="5.6083" height="6.18415" rx="2.80415" fill="#3865F3" fill-opacity="0.15"/>
<rect x="0.982666" y="75.1213" width="5.6083" height="6.18415" rx="2.80415" fill="#3865F3" fill-opacity="0.15"/>
<rect x="0.982666" y="19.4659" width="5.6083" height="6.18415" rx="2.80415" fill="#3865F3" fill-opacity="0.15"/>
<rect x="17.8082" y="75.1213" width="5.6083" height="6.18415" rx="2.80415" fill="#3865F3" fill-opacity="0.15"/>
<rect x="17.8082" y="19.4659" width="5.6083" height="6.18415" rx="2.80415" fill="#3865F3" fill-opacity="0.15"/>
<rect x="34.6337" y="75.1213" width="5.6083" height="6.18415" rx="2.80415" fill="#3865F3" fill-opacity="0.15"/>
<rect x="34.6337" y="19.4659" width="5.6083" height="6.18415" rx="2.80415" fill="#3865F3" fill-opacity="0.15"/>
<rect x="51.4569" y="75.1213" width="5.6083" height="6.18415" rx="2.80415" fill="#3865F3" fill-opacity="0.15"/>
<rect x="51.4569" y="19.4659" width="5.6083" height="6.18415" rx="2.80415" fill="#3865F3" fill-opacity="0.15"/>
<rect x="68.2825" y="75.1213" width="5.6083" height="6.18415" rx="2.80415" fill="#3865F3" fill-opacity="0.15"/>
<rect x="68.2825" y="19.4659" width="5.6083" height="6.18415" rx="2.80415" fill="#3865F3" fill-opacity="0.15"/>
<rect x="85.1079" y="75.1213" width="5.6083" height="6.18415" rx="2.80415" fill="#3865F3" fill-opacity="0.15"/>
<rect x="85.1079" y="19.4659" width="5.6083" height="6.18415" rx="2.80415" fill="#3865F3" fill-opacity="0.15"/>
<rect x="101.933" y="75.1213" width="5.6083" height="6.18415" rx="2.80415" fill="#3865F3" fill-opacity="0.15"/>
<rect x="101.933" y="19.4659" width="5.6083" height="6.18415" rx="2.80415" fill="#3865F3" fill-opacity="0.15"/>
<rect x="118.757" y="75.1213" width="5.6083" height="6.18415" rx="2.80415" fill="#3865F3" fill-opacity="0.15"/>
<rect x="118.757" y="19.4659" width="5.6083" height="6.18415" rx="2.80415" fill="#3865F3" fill-opacity="0.15"/>
<rect x="0.982666" y="93.675" width="5.6083" height="6.18415" rx="2.80415" fill="#3865F3" fill-opacity="0.15"/>
<rect x="0.982666" y="38.0167" width="5.6083" height="6.18415" rx="2.80415" fill="#3865F3" fill-opacity="0.15"/>
<rect x="17.8082" y="93.675" width="5.6083" height="6.18415" rx="2.80415" fill="#3865F3" fill-opacity="0.15"/>
<rect x="17.8082" y="38.0167" width="5.6083" height="6.18415" rx="2.80415" fill="#3865F3" fill-opacity="0.15"/>
<rect x="34.6337" y="93.675" width="5.6083" height="6.18415" rx="2.80415" fill="#3865F3" fill-opacity="0.15"/>
<rect x="34.6337" y="38.0167" width="5.6083" height="6.18415" rx="2.80415" fill="#3865F3" fill-opacity="0.15"/>
<rect x="51.4569" y="93.675" width="5.6083" height="6.18415" rx="2.80415" fill="#3865F3" fill-opacity="0.15"/>
<rect x="51.4569" y="38.0167" width="5.6083" height="6.18415" rx="2.80415" fill="#3865F3" fill-opacity="0.15"/>
<rect x="68.2825" y="93.675" width="5.6083" height="6.18415" rx="2.80415" fill="#3865F3" fill-opacity="0.15"/>
<rect x="68.2825" y="38.0167" width="5.6083" height="6.18415" rx="2.80415" fill="#3865F3" fill-opacity="0.15"/>
<rect x="85.1079" y="93.675" width="5.6083" height="6.18415" rx="2.80415" fill="#3865F3" fill-opacity="0.15"/>
<rect x="85.1079" y="38.0167" width="5.6083" height="6.18415" rx="2.80415" fill="#3865F3" fill-opacity="0.15"/>
<rect x="101.933" y="93.675" width="5.6083" height="6.18415" rx="2.80415" fill="#3865F3" fill-opacity="0.15"/>
<rect x="101.933" y="38.0167" width="5.6083" height="6.18415" rx="2.80415" fill="#3865F3" fill-opacity="0.15"/>
<rect x="118.757" y="93.675" width="5.6083" height="6.18415" rx="2.80415" fill="#3865F3" fill-opacity="0.15"/>
<rect x="118.757" y="38.0167" width="5.6083" height="6.18415" rx="2.80415" fill="#3865F3" fill-opacity="0.15"/>
<rect x="0.982666" y="112.226" width="5.6083" height="6.18415" rx="2.80415" fill="#3865F3" fill-opacity="0.15"/>
<rect x="17.8082" y="112.226" width="5.6083" height="6.18415" rx="2.80415" fill="#3865F3" fill-opacity="0.15"/>
<rect x="34.6337" y="112.226" width="5.6083" height="6.18415" rx="2.80415" fill="#3865F3" fill-opacity="0.15"/>
<rect x="51.4569" y="112.226" width="5.6083" height="6.18415" rx="2.80415" fill="#3865F3" fill-opacity="0.15"/>
<rect x="68.2825" y="112.226" width="5.6083" height="6.18415" rx="2.80415" fill="#3865F3" fill-opacity="0.15"/>
<rect x="85.1079" y="112.226" width="5.6083" height="6.18415" rx="2.80415" fill="#3865F3" fill-opacity="0.15"/>
<rect x="101.933" y="112.226" width="5.6083" height="6.18415" rx="2.80415" fill="#3865F3" fill-opacity="0.15"/>
<rect x="118.757" y="112.226" width="5.6083" height="6.18415" rx="2.80415" fill="#3865F3" fill-opacity="0.15"/>
<rect x="0.982666" y="130.78" width="5.6083" height="6.18415" rx="2.80415" fill="#3865F3" fill-opacity="0.15"/>
<rect x="17.8082" y="130.78" width="5.6083" height="6.18415" rx="2.80415" fill="#3865F3" fill-opacity="0.15"/>
<rect x="34.6337" y="130.78" width="5.6083" height="6.18415" rx="2.80415" fill="#3865F3" fill-opacity="0.15"/>
<rect x="51.4569" y="130.78" width="5.6083" height="6.18415" rx="2.80415" fill="#3865F3" fill-opacity="0.15"/>
<rect x="68.2825" y="130.78" width="5.6083" height="6.18415" rx="2.80415" fill="#3865F3" fill-opacity="0.15"/>
<rect x="85.1079" y="130.78" width="5.6083" height="6.18415" rx="2.80415" fill="#3865F3" fill-opacity="0.15"/>
<rect x="101.933" y="130.78" width="5.6083" height="6.18415" rx="2.80415" fill="#3865F3" fill-opacity="0.15"/>
<rect x="118.757" y="130.78" width="5.6083" height="6.18415" rx="2.80415" fill="#3865F3" fill-opacity="0.15"/>
</svg>
