<svg width="84" height="84" viewBox="0 0 84 84" fill="none" xmlns="http://www.w3.org/2000/svg">
<g clip-path="url(#clip0_8266_4839)">
<path d="M77 80.182C77 78.4247 78.4246 77.0001 80.1818 77.0001C81.9391 77.0001 83.3636 78.4247 83.3636 80.182C83.3636 81.9392 81.9391 83.3638 80.1818 83.3638C78.4246 83.3638 77 81.9392 77 80.182Z" stroke="#701A75" stroke-width="0.715909" stroke-linecap="round" stroke-linejoin="round"/>
</g>
<g clip-path="url(#clip1_8266_4839)">
<path d="M77 64.909C77 63.1517 78.4246 61.7272 80.1818 61.7272C81.9391 61.7272 83.3636 63.1517 83.3636 64.909C83.3636 66.6663 81.9391 68.0908 80.1818 68.0908C78.4246 68.0908 77 66.6663 77 64.909Z" stroke="#701A75" stroke-width="0.715909" stroke-linecap="round" stroke-linejoin="round"/>
</g>
<g clip-path="url(#clip2_8266_4839)">
<path d="M77 49.6361C77 47.8788 78.4246 46.4542 80.1818 46.4542C81.9391 46.4542 83.3636 47.8788 83.3636 49.6361C83.3636 51.3933 81.9391 52.8179 80.1818 52.8179C78.4246 52.8179 77 51.3933 77 49.6361Z" stroke="#701A75" stroke-width="0.715909" stroke-linecap="round" stroke-linejoin="round"/>
</g>
<g clip-path="url(#clip3_8266_4839)">
<path d="M77 34.3636C77 32.6063 78.4246 31.1818 80.1818 31.1818C81.9391 31.1818 83.3636 32.6063 83.3636 34.3636C83.3636 36.1209 81.9391 37.5454 80.1818 37.5454C78.4246 37.5454 77 36.1209 77 34.3636Z" stroke="#701A75" stroke-width="0.715909" stroke-linecap="round" stroke-linejoin="round"/>
</g>
<g clip-path="url(#clip4_8266_4839)">
<path d="M77 19.0906C77 17.3334 78.4246 15.9088 80.1818 15.9088C81.9391 15.9088 83.3636 17.3334 83.3636 19.0906C83.3636 20.8479 81.9391 22.2725 80.1818 22.2725C78.4246 22.2725 77 20.8479 77 19.0906Z" stroke="#701A75" stroke-width="0.715909" stroke-linecap="round" stroke-linejoin="round"/>
</g>
<g clip-path="url(#clip5_8266_4839)">
<path d="M77 3.81818C77 2.06093 78.4246 0.636363 80.1818 0.636363C81.9391 0.636363 83.3636 2.06093 83.3636 3.81818C83.3636 5.57545 81.9391 7 80.1818 7C78.4246 7 77 5.57545 77 3.81818Z" stroke="#701A75" stroke-width="0.715909" stroke-linecap="round" stroke-linejoin="round"/>
</g>
<g clip-path="url(#clip6_8266_4839)">
<path d="M61.7273 80.182C61.7273 78.4247 63.1518 77.0001 64.9091 77.0001C66.6664 77.0001 68.0909 78.4247 68.0909 80.182C68.0909 81.9392 66.6664 83.3638 64.9091 83.3638C63.1518 83.3638 61.7273 81.9392 61.7273 80.182Z" stroke="#701A75" stroke-width="0.715909" stroke-linecap="round" stroke-linejoin="round"/>
</g>
<g clip-path="url(#clip7_8266_4839)">
<path d="M61.7273 64.909C61.7273 63.1517 63.1518 61.7272 64.9091 61.7272C66.6664 61.7272 68.0909 63.1517 68.0909 64.909C68.0909 66.6663 66.6664 68.0908 64.9091 68.0908C63.1518 68.0908 61.7273 66.6663 61.7273 64.909Z" stroke="#701A75" stroke-width="0.715909" stroke-linecap="round" stroke-linejoin="round"/>
</g>
<g clip-path="url(#clip8_8266_4839)">
<path d="M61.7273 49.6361C61.7273 47.8788 63.1518 46.4542 64.9091 46.4542C66.6664 46.4542 68.0909 47.8788 68.0909 49.6361C68.0909 51.3933 66.6664 52.8179 64.9091 52.8179C63.1518 52.8179 61.7273 51.3933 61.7273 49.6361Z" stroke="#701A75" stroke-width="0.715909" stroke-linecap="round" stroke-linejoin="round"/>
</g>
<g clip-path="url(#clip9_8266_4839)">
<path d="M61.7273 34.3636C61.7273 32.6063 63.1518 31.1818 64.9091 31.1818C66.6664 31.1818 68.0909 32.6063 68.0909 34.3636C68.0909 36.1209 66.6664 37.5454 64.9091 37.5454C63.1518 37.5454 61.7273 36.1209 61.7273 34.3636Z" stroke="#701A75" stroke-width="0.715909" stroke-linecap="round" stroke-linejoin="round"/>
</g>
<g clip-path="url(#clip10_8266_4839)">
<path d="M61.7273 19.0906C61.7273 17.3334 63.1518 15.9088 64.9091 15.9088C66.6664 15.9088 68.0909 17.3334 68.0909 19.0906C68.0909 20.8479 66.6664 22.2725 64.9091 22.2725C63.1518 22.2725 61.7273 20.8479 61.7273 19.0906Z" stroke="#701A75" stroke-width="0.715909" stroke-linecap="round" stroke-linejoin="round"/>
</g>
<g clip-path="url(#clip11_8266_4839)">
<path d="M61.7273 3.81818C61.7273 2.06093 63.1518 0.636363 64.9091 0.636363C66.6664 0.636363 68.0909 2.06093 68.0909 3.81818C68.0909 5.57545 66.6664 7 64.9091 7C63.1518 7 61.7273 5.57545 61.7273 3.81818Z" stroke="#701A75" stroke-width="0.715909" stroke-linecap="round" stroke-linejoin="round"/>
</g>
<g clip-path="url(#clip12_8266_4839)">
<path d="M46.4545 80.182C46.4545 78.4247 47.8791 77.0001 49.6364 77.0001C51.3936 77.0001 52.8182 78.4247 52.8182 80.182C52.8182 81.9392 51.3936 83.3638 49.6364 83.3638C47.8791 83.3638 46.4545 81.9392 46.4545 80.182Z" stroke="#701A75" stroke-width="0.715909" stroke-linecap="round" stroke-linejoin="round"/>
</g>
<g clip-path="url(#clip13_8266_4839)">
<path d="M46.4545 64.909C46.4545 63.1517 47.8791 61.7272 49.6364 61.7272C51.3936 61.7272 52.8182 63.1517 52.8182 64.909C52.8182 66.6663 51.3936 68.0908 49.6364 68.0908C47.8791 68.0908 46.4545 66.6663 46.4545 64.909Z" stroke="#701A75" stroke-width="0.715909" stroke-linecap="round" stroke-linejoin="round"/>
</g>
<g clip-path="url(#clip14_8266_4839)">
<path d="M46.4545 49.6361C46.4545 47.8788 47.8791 46.4542 49.6364 46.4542C51.3936 46.4542 52.8182 47.8788 52.8182 49.6361C52.8182 51.3933 51.3936 52.8179 49.6364 52.8179C47.8791 52.8179 46.4545 51.3933 46.4545 49.6361Z" stroke="#701A75" stroke-width="0.715909" stroke-linecap="round" stroke-linejoin="round"/>
</g>
<g clip-path="url(#clip15_8266_4839)">
<path d="M46.4545 34.3636C46.4545 32.6063 47.8791 31.1818 49.6364 31.1818C51.3936 31.1818 52.8182 32.6063 52.8182 34.3636C52.8182 36.1209 51.3936 37.5454 49.6364 37.5454C47.8791 37.5454 46.4545 36.1209 46.4545 34.3636Z" stroke="#701A75" stroke-width="0.715909" stroke-linecap="round" stroke-linejoin="round"/>
</g>
<g clip-path="url(#clip16_8266_4839)">
<path d="M46.4545 19.0906C46.4545 17.3334 47.8791 15.9088 49.6364 15.9088C51.3936 15.9088 52.8182 17.3334 52.8182 19.0906C52.8182 20.8479 51.3936 22.2725 49.6364 22.2725C47.8791 22.2725 46.4545 20.8479 46.4545 19.0906Z" stroke="#701A75" stroke-width="0.715909" stroke-linecap="round" stroke-linejoin="round"/>
</g>
<g clip-path="url(#clip17_8266_4839)">
<path d="M46.4545 3.81818C46.4545 2.06093 47.8791 0.636363 49.6364 0.636363C51.3936 0.636363 52.8182 2.06093 52.8182 3.81818C52.8182 5.57545 51.3936 7 49.6364 7C47.8791 7 46.4545 5.57545 46.4545 3.81818Z" stroke="#701A75" stroke-width="0.715909" stroke-linecap="round" stroke-linejoin="round"/>
</g>
<g clip-path="url(#clip18_8266_4839)">
<path d="M31.1818 80.182C31.1818 78.4247 32.6064 77.0001 34.3636 77.0001C36.1209 77.0001 37.5455 78.4247 37.5455 80.182C37.5455 81.9392 36.1209 83.3638 34.3636 83.3638C32.6064 83.3638 31.1818 81.9392 31.1818 80.182Z" stroke="#701A75" stroke-width="0.715909" stroke-linecap="round" stroke-linejoin="round"/>
</g>
<g clip-path="url(#clip19_8266_4839)">
<path d="M31.1818 64.909C31.1818 63.1517 32.6064 61.7272 34.3636 61.7272C36.1209 61.7272 37.5455 63.1517 37.5455 64.909C37.5455 66.6663 36.1209 68.0908 34.3636 68.0908C32.6064 68.0908 31.1818 66.6663 31.1818 64.909Z" stroke="#701A75" stroke-width="0.715909" stroke-linecap="round" stroke-linejoin="round"/>
</g>
<g clip-path="url(#clip20_8266_4839)">
<path d="M31.1818 49.6361C31.1818 47.8788 32.6064 46.4542 34.3636 46.4542C36.1209 46.4542 37.5455 47.8788 37.5455 49.6361C37.5455 51.3933 36.1209 52.8179 34.3636 52.8179C32.6064 52.8179 31.1818 51.3933 31.1818 49.6361Z" stroke="#701A75" stroke-width="0.715909" stroke-linecap="round" stroke-linejoin="round"/>
</g>
<g clip-path="url(#clip21_8266_4839)">
<path d="M31.1818 34.3636C31.1818 32.6063 32.6064 31.1818 34.3636 31.1818C36.1209 31.1818 37.5454 32.6063 37.5454 34.3636C37.5454 36.1209 36.1209 37.5454 34.3636 37.5454C32.6064 37.5454 31.1818 36.1209 31.1818 34.3636Z" stroke="#701A75" stroke-width="0.715909" stroke-linecap="round" stroke-linejoin="round"/>
</g>
<g clip-path="url(#clip22_8266_4839)">
<path d="M31.1818 19.0906C31.1818 17.3334 32.6064 15.9088 34.3636 15.9088C36.1209 15.9088 37.5454 17.3334 37.5454 19.0906C37.5454 20.8479 36.1209 22.2725 34.3636 22.2725C32.6064 22.2725 31.1818 20.8479 31.1818 19.0906Z" stroke="#701A75" stroke-width="0.715909" stroke-linecap="round" stroke-linejoin="round"/>
</g>
<g clip-path="url(#clip23_8266_4839)">
<path d="M31.1818 3.81818C31.1818 2.06093 32.6064 0.636363 34.3636 0.636363C36.1209 0.636363 37.5454 2.06093 37.5454 3.81818C37.5454 5.57545 36.1209 7 34.3636 7C32.6064 7 31.1818 5.57545 31.1818 3.81818Z" stroke="#701A75" stroke-width="0.715909" stroke-linecap="round" stroke-linejoin="round"/>
</g>
<g clip-path="url(#clip24_8266_4839)">
<path d="M15.9091 80.182C15.9091 78.4247 17.3336 77.0001 19.0909 77.0001C20.8482 77.0001 22.2727 78.4247 22.2727 80.182C22.2727 81.9392 20.8482 83.3638 19.0909 83.3638C17.3336 83.3638 15.9091 81.9392 15.9091 80.182Z" stroke="#701A75" stroke-width="0.715909" stroke-linecap="round" stroke-linejoin="round"/>
</g>
<g clip-path="url(#clip25_8266_4839)">
<path d="M15.9091 64.909C15.9091 63.1517 17.3336 61.7272 19.0909 61.7272C20.8482 61.7272 22.2727 63.1517 22.2727 64.909C22.2727 66.6663 20.8482 68.0908 19.0909 68.0908C17.3336 68.0908 15.9091 66.6663 15.9091 64.909Z" stroke="#701A75" stroke-width="0.715909" stroke-linecap="round" stroke-linejoin="round"/>
</g>
<g clip-path="url(#clip26_8266_4839)">
<path d="M15.9091 49.6361C15.9091 47.8788 17.3336 46.4542 19.0909 46.4542C20.8482 46.4542 22.2727 47.8788 22.2727 49.6361C22.2727 51.3933 20.8482 52.8179 19.0909 52.8179C17.3336 52.8179 15.9091 51.3933 15.9091 49.6361Z" stroke="#701A75" stroke-width="0.715909" stroke-linecap="round" stroke-linejoin="round"/>
</g>
<g clip-path="url(#clip27_8266_4839)">
<path d="M15.9091 34.3636C15.9091 32.6063 17.3336 31.1818 19.0909 31.1818C20.8482 31.1818 22.2727 32.6063 22.2727 34.3636C22.2727 36.1209 20.8482 37.5454 19.0909 37.5454C17.3336 37.5454 15.9091 36.1209 15.9091 34.3636Z" stroke="#701A75" stroke-width="0.715909" stroke-linecap="round" stroke-linejoin="round"/>
</g>
<g clip-path="url(#clip28_8266_4839)">
<path d="M15.9091 19.0906C15.9091 17.3334 17.3336 15.9088 19.0909 15.9088C20.8482 15.9088 22.2727 17.3334 22.2727 19.0906C22.2727 20.8479 20.8482 22.2725 19.0909 22.2725C17.3336 22.2725 15.9091 20.8479 15.9091 19.0906Z" stroke="#701A75" stroke-width="0.715909" stroke-linecap="round" stroke-linejoin="round"/>
</g>
<g clip-path="url(#clip29_8266_4839)">
<path d="M15.9091 3.81818C15.9091 2.06093 17.3336 0.636363 19.0909 0.636363C20.8482 0.636363 22.2727 2.06093 22.2727 3.81818C22.2727 5.57545 20.8482 7 19.0909 7C17.3336 7 15.9091 5.57545 15.9091 3.81818Z" stroke="#701A75" stroke-width="0.715909" stroke-linecap="round" stroke-linejoin="round"/>
</g>
<g clip-path="url(#clip30_8266_4839)">
<path d="M0.636363 80.182C0.636363 78.4247 2.06093 77.0001 3.81818 77.0001C5.57545 77.0001 7 78.4247 7 80.182C7 81.9392 5.57545 83.3638 3.81818 83.3638C2.06093 83.3638 0.636363 81.9392 0.636363 80.182Z" stroke="#701A75" stroke-width="0.715909" stroke-linecap="round" stroke-linejoin="round"/>
</g>
<g clip-path="url(#clip31_8266_4839)">
<path d="M0.636363 64.909C0.636363 63.1517 2.06093 61.7272 3.81818 61.7272C5.57545 61.7272 7 63.1517 7 64.909C7 66.6663 5.57545 68.0908 3.81818 68.0908C2.06093 68.0908 0.636363 66.6663 0.636363 64.909Z" stroke="#701A75" stroke-width="0.715909" stroke-linecap="round" stroke-linejoin="round"/>
</g>
<g clip-path="url(#clip32_8266_4839)">
<path d="M0.636363 49.6361C0.636363 47.8788 2.06093 46.4542 3.81818 46.4542C5.57545 46.4542 7 47.8788 7 49.6361C7 51.3933 5.57545 52.8179 3.81818 52.8179C2.06093 52.8179 0.636363 51.3933 0.636363 49.6361Z" stroke="#701A75" stroke-width="0.715909" stroke-linecap="round" stroke-linejoin="round"/>
</g>
<g clip-path="url(#clip33_8266_4839)">
<path d="M0.636363 34.3636C0.636363 32.6063 2.06093 31.1818 3.81818 31.1818C5.57545 31.1818 7 32.6063 7 34.3636C7 36.1209 5.57545 37.5454 3.81818 37.5454C2.06093 37.5454 0.636363 36.1209 0.636363 34.3636Z" stroke="#701A75" stroke-width="0.715909" stroke-linecap="round" stroke-linejoin="round"/>
</g>
<g clip-path="url(#clip34_8266_4839)">
<path d="M0.636363 19.0906C0.636363 17.3334 2.06093 15.9088 3.81818 15.9088C5.57545 15.9088 7 17.3334 7 19.0906C7 20.8479 5.57545 22.2725 3.81818 22.2725C2.06093 22.2725 0.636363 20.8479 0.636363 19.0906Z" stroke="#701A75" stroke-width="0.715909" stroke-linecap="round" stroke-linejoin="round"/>
</g>
<g clip-path="url(#clip35_8266_4839)">
<path d="M0.636363 3.81818C0.636363 2.06093 2.06093 0.636363 3.81818 0.636363C5.57545 0.636363 7 2.06093 7 3.81818C7 5.57545 5.57545 7 3.81818 7C2.06093 7 0.636363 5.57545 0.636363 3.81818Z" stroke="#701A75" stroke-width="0.715909" stroke-linecap="round" stroke-linejoin="round"/>
</g>
<defs>
<clipPath id="clip0_8266_4839">
<rect width="7.63636" height="7.63636" fill="white" transform="matrix(-4.37114e-08 -1 -1 4.37114e-08 84 84)"/>
</clipPath>
<clipPath id="clip1_8266_4839">
<rect width="7.63636" height="7.63636" fill="white" transform="matrix(-4.37114e-08 -1 -1 4.37114e-08 84 68.7271)"/>
</clipPath>
<clipPath id="clip2_8266_4839">
<rect width="7.63636" height="7.63636" fill="white" transform="matrix(-4.37114e-08 -1 -1 4.37114e-08 84 53.4546)"/>
</clipPath>
<clipPath id="clip3_8266_4839">
<rect width="7.63636" height="7.63636" fill="white" transform="matrix(-4.37114e-08 -1 -1 4.37114e-08 84 38.1816)"/>
</clipPath>
<clipPath id="clip4_8266_4839">
<rect width="7.63636" height="7.63636" fill="white" transform="matrix(-4.37114e-08 -1 -1 4.37114e-08 84 22.9092)"/>
</clipPath>
<clipPath id="clip5_8266_4839">
<rect width="7.63636" height="7.63636" fill="white" transform="matrix(-4.37114e-08 -1 -1 4.37114e-08 84 7.63623)"/>
</clipPath>
<clipPath id="clip6_8266_4839">
<rect width="7.63636" height="7.63636" fill="white" transform="matrix(-4.37114e-08 -1 -1 4.37114e-08 68.7273 84)"/>
</clipPath>
<clipPath id="clip7_8266_4839">
<rect width="7.63636" height="7.63636" fill="white" transform="matrix(-4.37114e-08 -1 -1 4.37114e-08 68.7273 68.7271)"/>
</clipPath>
<clipPath id="clip8_8266_4839">
<rect width="7.63636" height="7.63636" fill="white" transform="matrix(-4.37114e-08 -1 -1 4.37114e-08 68.7273 53.4546)"/>
</clipPath>
<clipPath id="clip9_8266_4839">
<rect width="7.63636" height="7.63636" fill="white" transform="matrix(-4.37114e-08 -1 -1 4.37114e-08 68.7273 38.1816)"/>
</clipPath>
<clipPath id="clip10_8266_4839">
<rect width="7.63636" height="7.63636" fill="white" transform="matrix(-4.37114e-08 -1 -1 4.37114e-08 68.7273 22.9092)"/>
</clipPath>
<clipPath id="clip11_8266_4839">
<rect width="7.63636" height="7.63636" fill="white" transform="matrix(-4.37114e-08 -1 -1 4.37114e-08 68.7273 7.63623)"/>
</clipPath>
<clipPath id="clip12_8266_4839">
<rect width="7.63636" height="7.63636" fill="white" transform="matrix(-4.37114e-08 -1 -1 4.37114e-08 53.4545 84)"/>
</clipPath>
<clipPath id="clip13_8266_4839">
<rect width="7.63636" height="7.63636" fill="white" transform="matrix(-4.37114e-08 -1 -1 4.37114e-08 53.4545 68.7271)"/>
</clipPath>
<clipPath id="clip14_8266_4839">
<rect width="7.63636" height="7.63636" fill="white" transform="matrix(-4.37114e-08 -1 -1 4.37114e-08 53.4545 53.4546)"/>
</clipPath>
<clipPath id="clip15_8266_4839">
<rect width="7.63636" height="7.63636" fill="white" transform="matrix(-4.37114e-08 -1 -1 4.37114e-08 53.4545 38.1816)"/>
</clipPath>
<clipPath id="clip16_8266_4839">
<rect width="7.63636" height="7.63636" fill="white" transform="matrix(-4.37114e-08 -1 -1 4.37114e-08 53.4545 22.9092)"/>
</clipPath>
<clipPath id="clip17_8266_4839">
<rect width="7.63636" height="7.63636" fill="white" transform="matrix(-4.37114e-08 -1 -1 4.37114e-08 53.4545 7.63623)"/>
</clipPath>
<clipPath id="clip18_8266_4839">
<rect width="7.63636" height="7.63636" fill="white" transform="matrix(-4.37114e-08 -1 -1 4.37114e-08 38.1818 84)"/>
</clipPath>
<clipPath id="clip19_8266_4839">
<rect width="7.63636" height="7.63636" fill="white" transform="matrix(-4.37114e-08 -1 -1 4.37114e-08 38.1818 68.7271)"/>
</clipPath>
<clipPath id="clip20_8266_4839">
<rect width="7.63636" height="7.63636" fill="white" transform="matrix(-4.37114e-08 -1 -1 4.37114e-08 38.1818 53.4546)"/>
</clipPath>
<clipPath id="clip21_8266_4839">
<rect width="7.63636" height="7.63636" fill="white" transform="matrix(-4.37114e-08 -1 -1 4.37114e-08 38.1818 38.1816)"/>
</clipPath>
<clipPath id="clip22_8266_4839">
<rect width="7.63636" height="7.63636" fill="white" transform="matrix(-4.37114e-08 -1 -1 4.37114e-08 38.1818 22.9092)"/>
</clipPath>
<clipPath id="clip23_8266_4839">
<rect width="7.63636" height="7.63636" fill="white" transform="matrix(-4.37114e-08 -1 -1 4.37114e-08 38.1818 7.63623)"/>
</clipPath>
<clipPath id="clip24_8266_4839">
<rect width="7.63636" height="7.63636" fill="white" transform="matrix(-4.37114e-08 -1 -1 4.37114e-08 22.9091 84)"/>
</clipPath>
<clipPath id="clip25_8266_4839">
<rect width="7.63636" height="7.63636" fill="white" transform="matrix(-4.37114e-08 -1 -1 4.37114e-08 22.9091 68.7271)"/>
</clipPath>
<clipPath id="clip26_8266_4839">
<rect width="7.63636" height="7.63636" fill="white" transform="matrix(-4.37114e-08 -1 -1 4.37114e-08 22.9091 53.4546)"/>
</clipPath>
<clipPath id="clip27_8266_4839">
<rect width="7.63636" height="7.63636" fill="white" transform="matrix(-4.37114e-08 -1 -1 4.37114e-08 22.9091 38.1816)"/>
</clipPath>
<clipPath id="clip28_8266_4839">
<rect width="7.63636" height="7.63636" fill="white" transform="matrix(-4.37114e-08 -1 -1 4.37114e-08 22.9091 22.9092)"/>
</clipPath>
<clipPath id="clip29_8266_4839">
<rect width="7.63636" height="7.63636" fill="white" transform="matrix(-4.37114e-08 -1 -1 4.37114e-08 22.9091 7.63623)"/>
</clipPath>
<clipPath id="clip30_8266_4839">
<rect width="7.63636" height="7.63636" fill="white" transform="matrix(-4.37114e-08 -1 -1 4.37114e-08 7.63635 84)"/>
</clipPath>
<clipPath id="clip31_8266_4839">
<rect width="7.63636" height="7.63636" fill="white" transform="matrix(-4.37114e-08 -1 -1 4.37114e-08 7.63635 68.7271)"/>
</clipPath>
<clipPath id="clip32_8266_4839">
<rect width="7.63636" height="7.63636" fill="white" transform="matrix(-4.37114e-08 -1 -1 4.37114e-08 7.63635 53.4546)"/>
</clipPath>
<clipPath id="clip33_8266_4839">
<rect width="7.63636" height="7.63636" fill="white" transform="matrix(-4.37114e-08 -1 -1 4.37114e-08 7.63635 38.1816)"/>
</clipPath>
<clipPath id="clip34_8266_4839">
<rect width="7.63636" height="7.63636" fill="white" transform="matrix(-4.37114e-08 -1 -1 4.37114e-08 7.63635 22.9092)"/>
</clipPath>
<clipPath id="clip35_8266_4839">
<rect width="7.63636" height="7.63636" fill="white" transform="matrix(-4.37114e-08 -1 -1 4.37114e-08 7.63635 7.63623)"/>
</clipPath>
</defs>
</svg>
