<svg width="67" height="92" viewBox="0 0 67 92" fill="none" xmlns="http://www.w3.org/2000/svg">
<path d="M58.6199 14.2399C62.276 14.2399 65.2399 11.276 65.2399 7.61993C65.2399 3.96384 62.276 1 58.6199 1C54.9638 1 52 3.96384 52 7.61993C52 11.276 54.9638 14.2399 58.6199 14.2399Z" stroke="#524B3A" stroke-opacity="0.54" stroke-linecap="round" stroke-linejoin="round"/>
<path d="M58.6652 12.9833V12.0928C57.9274 12.0623 57.3804 11.8231 57.0192 11.3728C56.6579 10.9225 56.4594 10.2839 56.4238 9.45452L57.7951 9.20011C57.8036 9.48863 57.8394 9.7757 57.902 10.0575C57.947 10.2803 58.0526 10.4863 58.2073 10.6528C58.2803 10.7234 58.3669 10.7782 58.4618 10.8141C58.5567 10.85 58.658 10.8661 58.7594 10.8615C58.8631 10.8712 58.9676 10.8555 59.0639 10.8155C59.1601 10.7756 59.2451 10.7128 59.3115 10.6325C59.4279 10.4602 59.4859 10.2551 59.4768 10.0473C59.4937 9.71772 59.4045 9.39138 59.2224 9.11615C59.0238 8.84747 58.795 8.60247 58.5406 8.38597L57.4364 7.42173C57.2447 7.25092 57.0692 7.06269 56.9123 6.85947C56.7603 6.65712 56.641 6.4322 56.5587 6.1929C56.4673 5.91474 56.4234 5.62316 56.4289 5.33042C56.4129 5.05144 56.454 4.77213 56.5498 4.50963C56.6457 4.24713 56.7941 4.00698 56.9861 3.80392C57.393 3.42132 57.9286 3.20525 58.4871 3.19841V2.33594H58.9502V3.18823C59.2652 3.19679 59.5738 3.27961 59.8508 3.42993C60.0778 3.56227 60.2704 3.74617 60.4131 3.96675C60.5559 4.1976 60.6598 4.45027 60.7209 4.71474C60.7904 4.99224 60.8313 5.27612 60.8431 5.56195L59.4921 5.79855C59.4823 5.55173 59.4542 5.30597 59.4081 5.06329C59.3763 4.87456 59.2926 4.6984 59.1664 4.55445C59.0994 4.49054 59.0189 4.4425 58.9308 4.41387C58.8428 4.38525 58.7494 4.37678 58.6576 4.38908C58.5539 4.38559 58.4506 4.40498 58.3552 4.44587C58.2598 4.48676 58.1745 4.54815 58.1055 4.62569C57.9757 4.78554 57.9088 4.9873 57.9173 5.19304C57.9062 5.45661 57.9773 5.71712 58.1208 5.93848C58.2709 6.1427 58.4413 6.3311 58.6296 6.50074L59.7236 7.45481C59.9525 7.6638 60.1659 7.88913 60.3622 8.12901C60.5599 8.3756 60.7186 8.65102 60.8329 8.94569C60.9536 9.27119 61.0131 9.61622 61.0084 9.96336C61.0148 10.3217 60.9364 10.6766 60.7794 10.9988C60.6302 11.2957 60.4067 11.549 60.1307 11.7341C59.831 11.9274 59.4886 12.0444 59.1334 12.075V12.9833H58.6652Z" fill="#524B3A" fill-opacity="0.54"/>
<path d="M27.2749 30.5498C31.845 30.5498 35.5498 26.845 35.5498 22.2749C35.5498 17.7048 31.845 14 27.2749 14C22.7048 14 19 17.7048 19 22.2749C19 26.845 22.7048 30.5498 27.2749 30.5498Z" stroke="#524B3A" stroke-opacity="0.54" stroke-linecap="round" stroke-linejoin="round"/>
<path d="M27.332 28.9772V27.8641C26.4098 27.8259 25.726 27.527 25.2744 26.9641C24.8229 26.4012 24.5748 25.603 24.5303 24.5662L26.2444 24.2482C26.2551 24.6088 26.2998 24.9677 26.378 25.3199C26.4342 25.5984 26.5663 25.8559 26.7596 26.0641C26.8508 26.1522 26.9591 26.2208 27.0777 26.2657C27.1964 26.3105 27.323 26.3307 27.4497 26.3249C27.5794 26.3371 27.71 26.3174 27.8303 26.2675C27.9506 26.2176 28.0569 26.139 28.1398 26.0386C28.2854 25.8233 28.3579 25.5669 28.3465 25.3072C28.3676 24.8952 28.2562 24.4873 28.0285 24.1432C27.7803 23.8074 27.4943 23.5011 27.1762 23.2305L25.796 22.0252C25.5564 21.8117 25.337 21.5764 25.1409 21.3224C24.9509 21.0694 24.8017 20.7883 24.6988 20.4892C24.5846 20.1415 24.5297 19.777 24.5366 19.4111C24.5166 19.0624 24.568 18.7132 24.6878 18.3851C24.8076 18.057 24.9931 17.7568 25.2331 17.503C25.7418 17.0247 26.4113 16.7546 27.1094 16.7461V15.668H27.6882V16.7333C28.082 16.744 28.4678 16.8476 28.814 17.0355C29.0977 17.2009 29.3385 17.4308 29.5168 17.7065C29.6953 17.995 29.8253 18.3109 29.9016 18.6415C29.9885 18.9884 30.0396 19.3432 30.0543 19.7005L28.3656 19.9962C28.3533 19.6877 28.3183 19.3805 28.2607 19.0772C28.2208 18.8412 28.1162 18.621 27.9585 18.4411C27.8748 18.3612 27.7741 18.3012 27.664 18.2654C27.5539 18.2296 27.4372 18.219 27.3225 18.2344C27.1928 18.23 27.0638 18.2543 26.9445 18.3054C26.8252 18.3565 26.7187 18.4332 26.6324 18.5302C26.4701 18.73 26.3864 18.9822 26.3971 19.2393C26.3832 19.5688 26.4721 19.8944 26.6515 20.1711C26.8391 20.4264 27.0522 20.6619 27.2875 20.874L28.655 22.0666C28.9411 22.3278 29.2079 22.6095 29.4532 22.9093C29.7004 23.2175 29.8988 23.5618 30.0416 23.9302C30.1925 24.337 30.2669 24.7683 30.261 25.2022C30.269 25.6502 30.171 26.0938 29.9748 26.4966C29.7882 26.8677 29.5088 27.1843 29.1638 27.4157C28.7893 27.6573 28.3613 27.8036 27.9172 27.8418V28.9772H27.332Z" fill="#524B3A" fill-opacity="0.54"/>
<path d="M55.2716 64.717C61.0604 64.717 65.7532 60.0243 65.7532 54.2355C65.7532 48.4467 61.0604 43.7539 55.2716 43.7539C49.4828 43.7539 44.79 48.4467 44.79 54.2355C44.79 60.0243 49.4828 64.717 55.2716 64.717Z" stroke="#524B3A" stroke-opacity="0.54" stroke-linecap="round" stroke-linejoin="round"/>
<path d="M55.3448 62.7255V61.3156C54.1766 61.2673 53.3105 60.8886 52.7385 60.1756C52.1665 59.4626 51.8523 58.4515 51.7959 57.1383L53.9671 56.7355C53.9806 57.1923 54.0373 57.6468 54.1363 58.093C54.2076 58.4457 54.3749 58.7719 54.6197 59.0356C54.7353 59.1473 54.8724 59.2342 55.0227 59.291C55.173 59.3478 55.3333 59.3733 55.4938 59.3659C55.6581 59.3814 55.8236 59.3564 55.976 59.2932C56.1283 59.23 56.2629 59.1305 56.368 59.0034C56.5524 58.7306 56.6442 58.4058 56.6298 58.0769C56.6565 57.555 56.5154 57.0383 56.227 56.6025C55.9126 56.1771 55.5503 55.7892 55.1474 55.4464L53.3992 53.9197C53.0956 53.6492 52.8178 53.3512 52.5693 53.0294C52.3287 52.7091 52.1398 52.3529 52.0094 51.974C51.8647 51.5336 51.7952 51.072 51.804 50.6085C51.7786 50.1667 51.8437 49.7245 51.9954 49.3089C52.1471 48.8932 52.3822 48.513 52.6861 48.1915C53.3304 47.5857 54.1785 47.2436 55.0628 47.2328V45.8672H55.796V47.2167C56.2948 47.2302 56.7834 47.3613 57.222 47.5993C57.5813 47.8089 57.8863 48.1001 58.1122 48.4493C58.3383 48.8148 58.5029 49.2149 58.5996 49.6336C58.7096 50.073 58.7744 50.5225 58.793 50.975L56.654 51.3497C56.6384 50.9589 56.594 50.5697 56.5211 50.1855C56.4706 49.8867 56.3381 49.6077 56.1384 49.3798C56.0323 49.2786 55.9048 49.2026 55.7653 49.1573C55.6259 49.1119 55.478 49.0985 55.3327 49.118C55.1685 49.1125 55.005 49.1432 54.8539 49.2079C54.7028 49.2727 54.5679 49.3699 54.4586 49.4926C54.253 49.7457 54.147 50.0652 54.1605 50.3909C54.1429 50.8083 54.2555 51.2207 54.4827 51.5712C54.7204 51.8946 54.9903 52.1929 55.2884 52.4615L57.0206 53.9721C57.383 54.303 57.7209 54.6597 58.0317 55.0396C58.3447 55.43 58.596 55.8661 58.7769 56.3326C58.9681 56.848 59.0623 57.3943 59.0548 57.9439C59.065 58.5114 58.9408 59.0732 58.6923 59.5834C58.4559 60.0535 58.1021 60.4545 57.6651 60.7476C57.1906 61.0537 56.6485 61.239 56.086 61.2874V62.7255H55.3448Z" fill="#524B3A" fill-opacity="0.54"/>
<path d="M14.2399 91.1946C21.552 91.1946 27.4797 85.2669 27.4797 77.9547C27.4797 70.6425 21.552 64.7148 14.2399 64.7148C6.9277 64.7148 1 70.6425 1 77.9547C1 85.2669 6.9277 91.1946 14.2399 91.1946Z" stroke="#524B3A" stroke-opacity="0.54" stroke-linecap="round" stroke-linejoin="round"/>
<path d="M14.3315 88.6814V86.9005C12.8558 86.8394 11.7618 86.3611 11.0393 85.4605C10.3168 84.5599 9.91987 83.2827 9.84863 81.6239L12.5912 81.1151C12.6083 81.6921 12.6798 82.2663 12.805 82.8298C12.895 83.2754 13.1063 83.6874 13.4156 84.0205C13.5615 84.1615 13.7347 84.2713 13.9246 84.3431C14.1144 84.4148 14.317 84.447 14.5197 84.4377C14.7272 84.4573 14.9362 84.4257 15.1287 84.3459C15.3212 84.2661 15.4912 84.1404 15.6239 83.9798C15.8568 83.6353 15.9728 83.225 15.9546 82.8095C15.9884 82.1503 15.8101 81.4976 15.4458 80.9471C15.0486 80.4098 14.5911 79.9198 14.0821 79.4868L11.8738 77.5583C11.4904 77.2167 11.1395 76.8402 10.8256 76.4338C10.5216 76.0291 10.283 75.5792 10.1183 75.1006C9.9355 74.5443 9.84776 73.9612 9.8588 73.3757C9.82673 72.8177 9.90903 72.2591 10.1007 71.7341C10.2923 71.2091 10.5892 70.7288 10.9732 70.3227C11.787 69.5575 12.8583 69.1253 13.9753 69.1117V67.3867H14.9014V69.0913C15.5315 69.1084 16.1486 69.2741 16.7026 69.5747C17.1565 69.8394 17.5417 70.2072 17.8271 70.6483C18.1127 71.11 18.3207 71.6154 18.4428 72.1443C18.5817 72.6993 18.6636 73.2671 18.6871 73.8387L15.9852 74.3119C15.9655 73.8183 15.9094 73.3268 15.8173 72.8414C15.7535 72.464 15.5862 72.1116 15.3339 71.8238C15.1998 71.6959 15.0388 71.5998 14.8627 71.5426C14.6865 71.4853 14.4998 71.4684 14.3162 71.493C14.1087 71.486 13.9022 71.5248 13.7114 71.6066C13.5206 71.6884 13.3501 71.8112 13.212 71.9662C12.9524 72.2859 12.8185 72.6894 12.8355 73.1009C12.8133 73.6281 12.9555 74.1491 13.2425 74.5918C13.5427 75.0003 13.8837 75.377 14.2602 75.7163L16.4482 77.6245C16.906 78.0425 17.3328 78.4931 17.7254 78.9729C18.1208 79.466 18.4382 80.0169 18.6667 80.6062C18.9082 81.2572 19.0272 81.9473 19.0178 82.6416C19.0307 83.3583 18.8737 84.068 18.5599 84.7125C18.2613 85.3063 17.8143 85.8129 17.2623 86.183C16.6631 86.5696 15.9783 86.8037 15.2677 86.8649V88.6814H14.3315Z" fill="#524B3A" fill-opacity="0.54"/>
</svg>
