<svg width="40" height="44" viewBox="0 0 40 44" fill="none" xmlns="http://www.w3.org/2000/svg">
<path d="M32.2184 28.0257C30.2332 28.0284 28.3296 28.8163 26.9233 30.2176L14.7735 23.3306C15.0723 22.1381 15.0723 20.8903 14.7735 19.6978L26.9233 12.805C27.7959 13.6762 28.8698 14.3187 30.05 14.6757C31.2302 15.0327 32.4801 15.0932 33.6893 14.8518C34.8984 14.6104 36.0293 14.0745 36.9819 13.2917C37.9345 12.5089 38.6794 11.5032 39.1505 10.3638C39.6217 9.22443 39.8046 7.98642 39.6831 6.75944C39.5616 5.53246 39.1394 4.35438 38.4539 3.32953C37.7684 2.30467 36.8407 1.46467 35.7531 0.883907C34.6654 0.303146 33.4514 -0.000451822 32.2184 5.04695e-07C27.3732 5.04695e-07 23.7578 4.55906 24.9414 9.31653L12.7928 16.2036C11.7432 15.1571 10.4071 14.4452 8.95315 14.1576C7.4992 13.8701 5.99265 14.0199 4.62378 14.5881C3.25492 15.1563 2.08513 16.1174 1.26217 17.35C0.439216 18.5827 0 20.0315 0 21.5136C0 22.9957 0.439216 24.4446 1.26217 25.6772C2.08513 26.9099 3.25492 27.871 4.62378 28.4392C5.99265 29.0074 7.4992 29.1571 8.95315 28.8696C10.4071 28.5821 11.7432 27.8701 12.7928 26.8237L24.9414 33.7096C23.7613 38.4682 27.3778 43.0296 32.2184 43.0296C34.2071 43.0296 36.1144 42.2395 37.5206 40.8333C38.9268 39.4271 39.7168 37.5198 39.7168 35.5311C39.7168 33.5424 38.9268 31.6351 37.5206 30.2289C36.1144 28.8227 34.2071 28.0327 32.2184 28.0327V28.0257Z" fill="#DBDBDB"/>
</svg>
