<svg width="88" height="88" viewBox="0 0 88 88" fill="none" xmlns="http://www.w3.org/2000/svg">
<path d="M42.4932 2.06934C42.6581 0.440173 45.0324 0.440217 45.1973 2.06934L47.6299 26.1045C48.3883 33.5962 54.313 39.5209 61.8047 40.2793L85.8398 42.7119C87.469 42.8768 87.469 45.2511 85.8398 45.416L61.8047 47.8486C54.313 48.607 48.3883 54.5317 47.6299 62.0234L45.1973 86.0586C45.0323 87.6878 42.6581 87.6877 42.4932 86.0586L40.0605 62.0234C39.3022 54.5317 33.3775 48.607 25.8857 47.8486L1.85059 45.416C0.221429 45.2511 0.221462 42.8768 1.85059 42.7119L25.8857 40.2793C33.3775 39.5209 39.3022 33.5962 40.0605 26.1045L42.4932 2.06934Z" fill="white" stroke="black" stroke-width="0.905797"/>
</svg>
