<svg width="56" height="56" viewBox="0 0 56 56" fill="none" xmlns="http://www.w3.org/2000/svg">
<path d="M26.6484 1.86523C26.8152 0.238465 29.1848 0.238455 29.3516 1.86523L30.3145 11.2646C31.0817 18.7552 37.0125 24.672 44.5049 25.4219L53.9434 26.3672C55.5743 26.5306 55.5743 28.9069 53.9434 29.0703L44.5049 30.0156C37.0125 30.7655 31.0817 36.6823 30.3145 44.1729L29.3516 53.5723C29.1848 55.199 26.8152 55.199 26.6484 53.5723L25.6855 44.1729C24.9183 36.6823 18.9875 30.7655 11.4951 30.0156L2.05664 29.0703C0.425682 28.9069 0.425684 26.5306 2.05664 26.3672L11.4951 25.4219C18.9875 24.672 24.9183 18.7552 25.6855 11.2646L26.6484 1.86523Z" fill="white" stroke="black" stroke-width="0.905797"/>
</svg>

