<svg width="48" height="48" viewBox="0 0 48 48" fill="none" xmlns="http://www.w3.org/2000/svg">
<rect width="48" height="48" rx="24" fill="#D4ECFF"/>
<g filter="url(#filter0_d_9362_6972)">
<path fill-rule="evenodd" clip-rule="evenodd" d="M20.2261 20.7111H28.2312C30.5886 20.7111 32.5 22.5807 32.5 24.8866V29.8245C32.5 32.1304 30.5886 34 28.2312 34H19.7678C17.4114 34 15.5 32.1304 15.5 29.8245V24.8866C15.5 22.9902 16.8007 21.4068 18.5708 20.8979L18.46 20.9108V19.3871C18.4803 16.4163 20.9506 14 23.9787 14C26.3463 14 28.4385 15.4621 29.2108 17.6279C29.2921 17.8465 29.2717 18.0851 29.1701 18.2938C29.0685 18.5025 28.8866 18.6616 28.662 18.7321C28.2048 18.8902 27.6967 18.6526 27.524 18.1954C27.0057 16.7234 25.5842 15.7394 23.999 15.7394C21.925 15.7394 20.2494 17.3704 20.2383 19.3673V20.7091L20.2261 20.7111ZM23.9949 29.3285C24.4928 29.3285 24.8891 28.9409 24.8891 28.4538V26.2473C24.8891 25.7702 24.4928 25.3826 23.9949 25.3826C23.5072 25.3826 23.1109 25.7702 23.1109 26.2473V28.4538C23.1109 28.9409 23.5072 29.3285 23.9949 29.3285Z" fill="#1F75FB"/>
</g>
<defs>
<filter id="filter0_d_9362_6972" x="8" y="12" width="32" height="32" filterUnits="userSpaceOnUse" color-interpolation-filters="sRGB">
<feFlood flood-opacity="0" result="BackgroundImageFix"/>
<feColorMatrix in="SourceAlpha" type="matrix" values="0 0 0 0 0 0 0 0 0 0 0 0 0 0 0 0 0 0 127 0" result="hardAlpha"/>
<feOffset dy="4"/>
<feGaussianBlur stdDeviation="2"/>
<feComposite in2="hardAlpha" operator="out"/>
<feColorMatrix type="matrix" values="0 0 0 0 0.945098 0 0 0 0 0.321569 0 0 0 0 0.137255 0 0 0 0.06 0"/>
<feBlend mode="normal" in2="BackgroundImageFix" result="effect1_dropShadow_9362_6972"/>
<feBlend mode="normal" in="SourceGraphic" in2="effect1_dropShadow_9362_6972" result="shape"/>
</filter>
</defs>
</svg>
