<svg width="48" height="48" viewBox="0 0 48 48" fill="none" xmlns="http://www.w3.org/2000/svg">
<rect width="48" height="48" rx="24" fill="#E2E3FA"/>
<g filter="url(#filter0_d_9362_6953)">
<g clip-path="url(#clip0_9362_6953)">
<path d="M16.4466 30.1996C16.4693 30.2955 16.5112 30.3857 16.5697 30.465C16.6282 30.5442 16.7022 30.6108 16.7871 30.6607C16.872 30.7106 16.9662 30.7428 17.0639 30.7554C17.1616 30.768 17.2608 30.7607 17.3556 30.7339C21.7023 29.5338 26.2929 29.5334 30.6398 30.7327C30.7345 30.7594 30.8337 30.7667 30.9314 30.7541C31.0291 30.7415 31.1232 30.7093 31.2081 30.6595C31.293 30.6096 31.3669 30.543 31.4254 30.4638C31.4839 30.3846 31.5258 30.2944 31.5486 30.1986L33.8718 20.326C33.9029 20.1938 33.8965 20.0556 33.8533 19.9269C33.81 19.7982 33.7318 19.6841 33.6272 19.5975C33.5226 19.5108 33.396 19.4551 33.2615 19.4366C33.127 19.4181 32.9899 19.4375 32.8659 19.4926L28.2554 21.5418C28.0889 21.6157 27.9007 21.6247 27.728 21.567C27.5552 21.5092 27.4103 21.3888 27.3218 21.2295L24.6374 16.3975C24.5742 16.2838 24.4818 16.1891 24.3697 16.1232C24.2577 16.0572 24.13 16.0225 24 16.0225C23.8699 16.0225 23.7422 16.0572 23.6302 16.1232C23.5181 16.1891 23.4257 16.2838 23.3625 16.3975L20.6781 21.2295C20.5896 21.3888 20.4447 21.5092 20.2719 21.567C20.0992 21.6247 19.911 21.6157 19.7445 21.5418L15.1333 19.4923C15.0093 19.4372 14.8723 19.4178 14.7378 19.4363C14.6033 19.4548 14.4767 19.5105 14.3721 19.597C14.2676 19.6836 14.1893 19.7977 14.146 19.9264C14.1028 20.055 14.0963 20.1932 14.1273 20.3254L16.4466 30.1996Z" fill="#8644DD"/>
<path d="M16.4466 30.1996C16.4693 30.2955 16.5112 30.3857 16.5697 30.465C16.6282 30.5442 16.7022 30.6108 16.7871 30.6607C16.872 30.7106 16.9662 30.7428 17.0639 30.7554C17.1616 30.768 17.2608 30.7607 17.3556 30.7339C21.7023 29.5338 26.2929 29.5334 30.6398 30.7327C30.7345 30.7594 30.8337 30.7667 30.9314 30.7541C31.0291 30.7415 31.1232 30.7093 31.2081 30.6595C31.293 30.6096 31.3669 30.543 31.4254 30.4638C31.4839 30.3846 31.5258 30.2944 31.5486 30.1986L33.8718 20.326C33.9029 20.1938 33.8965 20.0556 33.8533 19.9269C33.81 19.7982 33.7318 19.6841 33.6272 19.5975C33.5226 19.5108 33.396 19.4551 33.2615 19.4366C33.127 19.4181 32.9899 19.4375 32.8659 19.4926L28.2554 21.5418C28.0889 21.6157 27.9007 21.6247 27.728 21.567C27.5552 21.5092 27.4103 21.3888 27.3218 21.2295L24.6374 16.3975C24.5742 16.2838 24.4818 16.1891 24.3697 16.1232C24.2577 16.0572 24.13 16.0225 24 16.0225C23.8699 16.0225 23.7422 16.0572 23.6302 16.1232C23.5181 16.1891 23.4257 16.2838 23.3625 16.3975L20.6781 21.2295C20.5896 21.3888 20.4447 21.5092 20.2719 21.567C20.0992 21.6247 19.911 21.6157 19.7445 21.5418L15.1333 19.4923C15.0093 19.4372 14.8723 19.4178 14.7378 19.4363C14.6033 19.4548 14.4767 19.5105 14.3721 19.597C14.2676 19.6836 14.1893 19.7977 14.146 19.9264C14.1028 20.055 14.0963 20.1932 14.1273 20.3254L16.4466 30.1996Z" stroke="#8644DD" stroke-linecap="round" stroke-linejoin="round"/>
<circle cx="13.7916" cy="18.8958" r="1.45833" fill="#8644DD"/>
<ellipse cx="24" cy="14.5208" rx="1.45833" ry="1.45833" fill="#8644DD"/>
<ellipse cx="34.2083" cy="18.8958" rx="1.45833" ry="1.45833" fill="#8644DD"/>
</g>
</g>
<defs>
<filter id="filter0_d_9362_6953" x="6" y="10" width="36" height="36" filterUnits="userSpaceOnUse" color-interpolation-filters="sRGB">
<feFlood flood-opacity="0" result="BackgroundImageFix"/>
<feColorMatrix in="SourceAlpha" type="matrix" values="0 0 0 0 0 0 0 0 0 0 0 0 0 0 0 0 0 0 127 0" result="hardAlpha"/>
<feOffset dy="4"/>
<feGaussianBlur stdDeviation="2"/>
<feComposite in2="hardAlpha" operator="out"/>
<feColorMatrix type="matrix" values="0 0 0 0 0.0523324 0 0 0 0 0.0362102 0 0 0 0 0.358654 0 0 0 0.06 0"/>
<feBlend mode="normal" in2="BackgroundImageFix" result="effect1_dropShadow_9362_6953"/>
<feBlend mode="normal" in="SourceGraphic" in2="effect1_dropShadow_9362_6953" result="shape"/>
</filter>
<clipPath id="clip0_9362_6953">
<rect width="23.3333" height="23.3333" fill="white" transform="translate(12.3333 12.3335)"/>
</clipPath>
</defs>
</svg>
