<svg width="48" height="48" viewBox="0 0 48 48" fill="none" xmlns="http://www.w3.org/2000/svg">
<rect width="48" height="48" rx="24" fill="#C1F2F2"/>
<g filter="url(#filter0_d_9362_6963)">
<path d="M33.4274 14.5783C32.9274 14.0673 32.1874 13.8783 31.4974 14.0783L15.4074 18.7273C14.6794 18.9293 14.1634 19.5063 14.0244 20.2383C13.8824 20.9843 14.3784 21.9323 15.0264 22.3283L20.0574 25.4003C20.5734 25.7163 21.2394 25.6373 21.6664 25.2093L27.4274 19.4483C27.7174 19.1473 28.1974 19.1473 28.4874 19.4483C28.7774 19.7373 28.7774 20.2083 28.4874 20.5083L22.7164 26.2693C22.2884 26.6973 22.2084 27.3613 22.5234 27.8783L25.5974 32.9283C25.9574 33.5273 26.5774 33.8683 27.2574 33.8683C27.3374 33.8683 27.4274 33.8683 27.5074 33.8573C28.2874 33.7583 28.9074 33.2273 29.1374 32.4773L33.9074 16.5083C34.1174 15.8283 33.9274 15.0883 33.4274 14.5783Z" fill="#08758B"/>
<path opacity="0.4" d="M20.3905 31.1421C20.6835 30.8504 21.1581 30.8504 21.4511 31.1421C21.7431 31.4351 21.7431 31.9106 21.4511 32.2036L20.0849 33.5679C19.9389 33.7148 19.7475 33.7885 19.5556 33.7886C19.3636 33.7886 19.1713 33.7149 19.0253 33.5679C18.7325 33.2749 18.7324 32.8012 19.0253 32.5083L20.3905 31.1421ZM19.6063 27.354C19.8993 27.062 20.3749 27.062 20.6679 27.354C20.9599 27.647 20.9599 28.1225 20.6679 28.4155L19.3017 29.7798C19.1557 29.9268 18.9634 30.0005 18.7714 30.0005C18.5795 30.0004 18.3871 29.9267 18.2411 29.7798C17.9487 29.4868 17.9485 29.0131 18.2411 28.7202L19.6063 27.354ZM15.8456 26.1616C16.1385 25.8699 16.6132 25.87 16.9062 26.1616C17.1982 26.4546 17.1982 26.9302 16.9062 27.2232L15.5399 28.5874C15.394 28.7344 15.2026 28.8081 15.0106 28.8081C14.8186 28.8081 14.6264 28.7344 14.4804 28.5874C14.1876 28.2944 14.1875 27.8208 14.4804 27.5278L15.8456 26.1616Z" fill="#08758B"/>
</g>
<defs>
<filter id="filter0_d_9362_6963" x="8" y="12" width="32" height="32" filterUnits="userSpaceOnUse" color-interpolation-filters="sRGB">
<feFlood flood-opacity="0" result="BackgroundImageFix"/>
<feColorMatrix in="SourceAlpha" type="matrix" values="0 0 0 0 0 0 0 0 0 0 0 0 0 0 0 0 0 0 127 0" result="hardAlpha"/>
<feOffset dy="4"/>
<feGaussianBlur stdDeviation="2"/>
<feComposite in2="hardAlpha" operator="out"/>
<feColorMatrix type="matrix" values="0 0 0 0 0.0391494 0 0 0 0 0.404263 0 0 0 0 0.515385 0 0 0 0.06 0"/>
<feBlend mode="normal" in2="BackgroundImageFix" result="effect1_dropShadow_9362_6963"/>
<feBlend mode="normal" in="SourceGraphic" in2="effect1_dropShadow_9362_6963" result="shape"/>
</filter>
</defs>
</svg>
