<svg width="48" height="48" viewBox="0 0 48 48" fill="none" xmlns="http://www.w3.org/2000/svg">
<rect width="48" height="48" rx="24" fill="#FFEFBB"/>
<g filter="url(#filter0_d_9362_6979)">
<path d="M23.9434 15.3262C24.1146 15.4925 24.3168 15.6903 24.541 15.916C25.2776 16.6575 26.257 17.6898 27.2334 18.8564C28.213 20.027 29.1719 21.312 29.8809 22.5596C30.6033 23.8309 31 24.9505 31 25.8184C30.9999 29.806 27.8449 33 24 33C20.1551 33 17.0001 29.806 17 25.8184C17 25.08 17.1117 24.0723 17.3945 23.0986C17.5495 22.5651 17.7487 22.0729 17.9873 21.6484L19.2607 23.3467C19.7098 23.9454 20.4239 24.0428 20.9541 23.8711C21.4808 23.7003 21.9935 23.2125 22.0283 22.4834C22.0856 21.2832 22.2431 19.5904 22.6543 18.0566C22.9763 16.8559 23.411 15.9134 23.9434 15.3262Z" fill="#DD7B0A" stroke="#DD7B0A" stroke-width="2" stroke-linejoin="round"/>
</g>
<defs>
<filter id="filter0_d_9362_6979" x="8" y="12" width="32" height="32" filterUnits="userSpaceOnUse" color-interpolation-filters="sRGB">
<feFlood flood-opacity="0" result="BackgroundImageFix"/>
<feColorMatrix in="SourceAlpha" type="matrix" values="0 0 0 0 0 0 0 0 0 0 0 0 0 0 0 0 0 0 127 0" result="hardAlpha"/>
<feOffset dy="4"/>
<feGaussianBlur stdDeviation="2"/>
<feComposite in2="hardAlpha" operator="out"/>
<feColorMatrix type="matrix" values="0 0 0 0 0.945098 0 0 0 0 0.321569 0 0 0 0 0.137255 0 0 0 0.06 0"/>
<feBlend mode="normal" in2="BackgroundImageFix" result="effect1_dropShadow_9362_6979"/>
<feBlend mode="normal" in="SourceGraphic" in2="effect1_dropShadow_9362_6979" result="shape"/>
</filter>
</defs>
</svg>
