<svg width="22" height="25" viewBox="0 0 22 25" fill="none" xmlns="http://www.w3.org/2000/svg">
<path d="M21.665 6.02801V10.1646C20.9349 10.094 19.9862 9.92977 18.9368 9.54911C17.5664 9.0518 16.5464 8.37182 15.8783 7.84535V16.2061L15.8612 16.18C15.8721 16.3457 15.8783 16.5146 15.8783 16.6849C15.8783 20.8369 12.4664 24.2168 8.27167 24.2168C4.07694 24.2168 0.665039 20.8369 0.665039 16.6849C0.665039 12.533 4.07694 9.15156 8.27167 9.15156C8.68246 9.15156 9.08551 9.1838 9.47925 9.24673V13.3235C9.10101 13.1899 8.69486 13.1178 8.27167 13.1178C6.28591 13.1178 4.6691 14.7172 4.6691 16.6849C4.6691 18.6527 6.28591 20.2521 8.27167 20.2521C10.2574 20.2521 11.8742 18.6512 11.8742 16.6849C11.8742 16.6113 11.8727 16.5376 11.868 16.4639V0.216797H16.0426C16.0581 0.566758 16.0721 0.919797 16.0876 1.26976C16.1155 1.95894 16.3635 2.62048 16.796 3.16231C17.3029 3.7993 18.0516 4.53913 19.1026 5.13007C20.087 5.68111 21.0109 5.91902 21.665 6.03107V6.02801Z" fill="white"/>
</svg>
