<svg width="105" height="106" viewBox="0 0 105 106" fill="none" xmlns="http://www.w3.org/2000/svg">
<g clip-path="url(#clip0_8266_4685)">
<path d="M87.8528 101.065C88.0042 101.014 88.0403 100.816 87.9166 100.715L82.8446 96.5579C82.7246 96.4596 82.5432 96.5262 82.5154 96.6788L81.3745 102.934C81.3467 103.086 81.4929 103.213 81.6398 103.163L87.8528 101.065Z" stroke="#701A75" stroke-width="0.763063" stroke-linecap="round" stroke-linejoin="round"/>
</g>
<g clip-path="url(#clip1_8266_4685)">
<path d="M90.7739 85.0503C90.9253 84.9992 90.9614 84.8015 90.8378 84.7001L85.7657 80.5435C85.6458 80.4452 85.4643 80.5118 85.4365 80.6644L84.2956 86.9192C84.2678 87.0718 84.414 87.1981 84.5609 87.1485L90.7739 85.0503Z" stroke="#701A75" stroke-width="0.763063" stroke-linecap="round" stroke-linejoin="round"/>
</g>
<g clip-path="url(#clip2_8266_4685)">
<path d="M93.695 69.0358C93.8464 68.9847 93.8824 68.7869 93.7588 68.6856L88.6868 64.529C88.5668 64.4307 88.3854 64.4973 88.3576 64.6499L87.2167 70.9047C87.1889 71.0572 87.3351 71.1836 87.482 71.134L93.695 69.0358Z" stroke="#701A75" stroke-width="0.763063" stroke-linecap="round" stroke-linejoin="round"/>
</g>
<g clip-path="url(#clip3_8266_4685)">
<path d="M96.6161 53.0214C96.7675 52.9702 96.8036 52.7725 96.68 52.6712L91.6079 48.5146C91.488 48.4163 91.3065 48.4829 91.2787 48.6355L90.1378 54.8903C90.11 55.0428 90.2562 55.1692 90.4031 55.1196L96.6161 53.0214Z" stroke="#701A75" stroke-width="0.763063" stroke-linecap="round" stroke-linejoin="round"/>
</g>
<g clip-path="url(#clip4_8266_4685)">
<path d="M99.5372 37.007C99.6886 36.9558 99.7246 36.7581 99.601 36.6568L94.529 32.5002C94.409 32.4019 94.2276 32.4685 94.1998 32.621L93.0589 38.8759C93.0311 39.0284 93.1773 39.1548 93.3242 39.1052L99.5372 37.007Z" stroke="#701A75" stroke-width="0.763063" stroke-linecap="round" stroke-linejoin="round"/>
</g>
<g clip-path="url(#clip5_8266_4685)">
<path d="M102.458 20.9925C102.61 20.9413 102.646 20.7436 102.522 20.6423L97.4501 16.4857C97.3301 16.3874 97.1487 16.454 97.1209 16.6065L95.98 22.8613C95.9522 23.0139 96.0984 23.1403 96.2453 23.0907L102.458 20.9925Z" stroke="#701A75" stroke-width="0.763063" stroke-linecap="round" stroke-linejoin="round"/>
</g>
<g clip-path="url(#clip6_8266_4685)">
<path d="M71.8383 98.1437C71.9898 98.0926 72.0258 97.8948 71.9022 97.7935L66.8301 93.6369C66.7102 93.5386 66.5288 93.6052 66.501 93.7578L65.3601 100.013C65.3322 100.165 65.4785 100.292 65.6254 100.242L71.8383 98.1437Z" stroke="#701A75" stroke-width="0.763063" stroke-linecap="round" stroke-linejoin="round"/>
</g>
<g clip-path="url(#clip7_8266_4685)">
<path d="M74.7594 82.1292C74.9108 82.078 74.9469 81.8803 74.8233 81.779L69.7512 77.6224C69.6313 77.5241 69.4499 77.5907 69.4221 77.7432L68.2812 83.9981C68.2533 84.1506 68.3995 84.277 68.5464 84.2274L74.7594 82.1292Z" stroke="#701A75" stroke-width="0.763063" stroke-linecap="round" stroke-linejoin="round"/>
</g>
<g clip-path="url(#clip8_8266_4685)">
<path d="M77.6805 66.1148C77.832 66.0636 77.868 65.8659 77.7444 65.7646L72.6723 61.608C72.5524 61.5097 72.371 61.5763 72.3432 61.7288L71.2023 67.9837C71.1744 68.1362 71.3207 68.2626 71.4676 68.213L77.6805 66.1148Z" stroke="#701A75" stroke-width="0.763063" stroke-linecap="round" stroke-linejoin="round"/>
</g>
<g clip-path="url(#clip9_8266_4685)">
<path d="M80.6016 50.1003C80.753 50.0491 80.7891 49.8514 80.6655 49.7501L75.5934 45.5935C75.4735 45.4952 75.2921 45.5618 75.2642 45.7143L74.1233 51.9691C74.0955 52.1217 74.2417 52.2481 74.3886 52.1984L80.6016 50.1003Z" stroke="#701A75" stroke-width="0.763063" stroke-linecap="round" stroke-linejoin="round"/>
</g>
<g clip-path="url(#clip10_8266_4685)">
<path d="M83.5227 34.0859C83.6741 34.0347 83.7102 33.837 83.5866 33.7357L78.5145 29.5791C78.3946 29.4808 78.2132 29.5474 78.1853 29.6999L77.0444 35.9547C77.0166 36.1073 77.1628 36.2336 77.3097 36.184L83.5227 34.0859Z" stroke="#701A75" stroke-width="0.763063" stroke-linecap="round" stroke-linejoin="round"/>
</g>
<g clip-path="url(#clip11_8266_4685)">
<path d="M86.4438 18.0714C86.5952 18.0203 86.6313 17.8226 86.5077 17.7213L81.4356 13.5647C81.3157 13.4664 81.1343 13.533 81.1064 13.6855L79.9655 19.9403C79.9377 20.0929 80.0839 20.2192 80.2308 20.1696L86.4438 18.0714Z" stroke="#701A75" stroke-width="0.763063" stroke-linecap="round" stroke-linejoin="round"/>
</g>
<g clip-path="url(#clip12_8266_4685)">
<path d="M55.8239 95.2226C55.9753 95.1714 56.0114 94.9737 55.8878 94.8724L50.8157 90.7158C50.6958 90.6175 50.5143 90.6841 50.4865 90.8366L49.3456 97.0915C49.3178 97.244 49.464 97.3704 49.6109 97.3208L55.8239 95.2226Z" stroke="#701A75" stroke-width="0.763063" stroke-linecap="round" stroke-linejoin="round"/>
</g>
<g clip-path="url(#clip13_8266_4685)">
<path d="M58.745 79.2082C58.8964 79.157 58.9325 78.9593 58.8088 78.858L53.7368 74.7014C53.6168 74.6031 53.4354 74.6697 53.4076 74.8222L52.2667 81.077C52.2389 81.2296 52.3851 81.356 52.532 81.3064L58.745 79.2082Z" stroke="#701A75" stroke-width="0.763063" stroke-linecap="round" stroke-linejoin="round"/>
</g>
<g clip-path="url(#clip14_8266_4685)">
<path d="M61.6661 63.1936C61.8175 63.1425 61.8535 62.9448 61.7299 62.8435L56.6579 58.6869C56.5379 58.5885 56.3565 58.6552 56.3287 58.8077L55.1878 65.0625C55.16 65.2151 55.3062 65.3414 55.4531 65.2918L61.6661 63.1936Z" stroke="#701A75" stroke-width="0.763063" stroke-linecap="round" stroke-linejoin="round"/>
</g>
<g clip-path="url(#clip15_8266_4685)">
<path d="M64.5872 47.1792C64.7386 47.1281 64.7746 46.9304 64.651 46.8291L59.579 42.6724C59.459 42.5741 59.2776 42.6408 59.2498 42.7933L58.1089 49.0481C58.0811 49.2007 58.2273 49.327 58.3742 49.2774L64.5872 47.1792Z" stroke="#701A75" stroke-width="0.763063" stroke-linecap="round" stroke-linejoin="round"/>
</g>
<g clip-path="url(#clip16_8266_4685)">
<path d="M67.5083 31.1647C67.6597 31.1136 67.6957 30.9158 67.5721 30.8145L62.5001 26.6579C62.3801 26.5596 62.1987 26.6262 62.1709 26.7788L61.03 33.0336C61.0022 33.1861 61.1484 33.3125 61.2953 33.2629L67.5083 31.1647Z" stroke="#701A75" stroke-width="0.763063" stroke-linecap="round" stroke-linejoin="round"/>
</g>
<g clip-path="url(#clip17_8266_4685)">
<path d="M70.4294 15.1503C70.5808 15.0992 70.6168 14.9014 70.4932 14.8001L65.4212 10.6435C65.3012 10.5452 65.1198 10.6118 65.092 10.7644L63.9511 17.0192C63.9233 17.1717 64.0695 17.2981 64.2164 17.2485L70.4294 15.1503Z" stroke="#701A75" stroke-width="0.763063" stroke-linecap="round" stroke-linejoin="round"/>
</g>
<g clip-path="url(#clip18_8266_4685)">
<path d="M39.8094 92.3014C39.9609 92.2503 39.9969 92.0526 39.8733 91.9512L34.8012 87.7946C34.6813 87.6963 34.4999 87.7629 34.4721 87.9155L33.3312 94.1703C33.3033 94.3229 33.4496 94.4492 33.5965 94.3996L39.8094 92.3014Z" stroke="#701A75" stroke-width="0.763063" stroke-linecap="round" stroke-linejoin="round"/>
</g>
<g clip-path="url(#clip19_8266_4685)">
<path d="M42.7305 76.287C42.882 76.2359 42.918 76.0382 42.7944 75.9368L37.7223 71.7802C37.6024 71.6819 37.421 71.7485 37.3932 71.9011L36.2523 78.1559C36.2244 78.3085 36.3707 78.4348 36.5176 78.3852L42.7305 76.287Z" stroke="#701A75" stroke-width="0.763063" stroke-linecap="round" stroke-linejoin="round"/>
</g>
<g clip-path="url(#clip20_8266_4685)">
<path d="M45.6516 60.2726C45.8031 60.2215 45.8391 60.0238 45.7155 59.9224L40.6434 55.7658C40.5235 55.6675 40.3421 55.7341 40.3143 55.8867L39.1734 62.1415C39.1455 62.294 39.2918 62.4204 39.4387 62.3708L45.6516 60.2726Z" stroke="#701A75" stroke-width="0.763063" stroke-linecap="round" stroke-linejoin="round"/>
</g>
<g clip-path="url(#clip21_8266_4685)">
<path d="M48.5727 44.2581C48.7241 44.2069 48.7602 44.0092 48.6366 43.9079L43.5645 39.7513C43.4446 39.653 43.2632 39.7196 43.2354 39.8721L42.0945 46.127C42.0666 46.2795 42.2128 46.4059 42.3598 46.3563L48.5727 44.2581Z" stroke="#701A75" stroke-width="0.763063" stroke-linecap="round" stroke-linejoin="round"/>
</g>
<g clip-path="url(#clip22_8266_4685)">
<path d="M51.4938 28.2437C51.6452 28.1925 51.6813 27.9948 51.5577 27.8935L46.4856 23.7369C46.3657 23.6386 46.1843 23.7052 46.1565 23.8577L45.0156 30.1126C44.9877 30.2651 45.1339 30.3915 45.2809 30.3419L51.4938 28.2437Z" stroke="#701A75" stroke-width="0.763063" stroke-linecap="round" stroke-linejoin="round"/>
</g>
<g clip-path="url(#clip23_8266_4685)">
<path d="M54.4149 12.2292C54.5663 12.178 54.6024 11.9803 54.4788 11.879L49.4067 7.72237C49.2868 7.62407 49.1054 7.69068 49.0775 7.84322L47.9366 14.098C47.9088 14.2506 48.055 14.377 48.2019 14.3273L54.4149 12.2292Z" stroke="#701A75" stroke-width="0.763063" stroke-linecap="round" stroke-linejoin="round"/>
</g>
<g clip-path="url(#clip24_8266_4685)">
<path d="M23.795 89.3804C23.9464 89.3293 23.9825 89.1315 23.8589 89.0302L18.7868 84.8736C18.6669 84.7753 18.4854 84.8419 18.4576 84.9945L17.3167 91.2493C17.2889 91.4018 17.4351 91.5282 17.582 91.4786L23.795 89.3804Z" stroke="#701A75" stroke-width="0.763063" stroke-linecap="round" stroke-linejoin="round"/>
</g>
<g clip-path="url(#clip25_8266_4685)">
<path d="M26.7161 73.3659C26.8675 73.3147 26.9036 73.117 26.78 73.0157L21.7079 68.8591C21.588 68.7608 21.4065 68.8274 21.3787 68.9799L20.2378 75.2348C20.21 75.3873 20.3562 75.5137 20.5031 75.4641L26.7161 73.3659Z" stroke="#701A75" stroke-width="0.763063" stroke-linecap="round" stroke-linejoin="round"/>
</g>
<g clip-path="url(#clip26_8266_4685)">
<path d="M29.6372 57.3515C29.7886 57.3003 29.8247 57.1026 29.7011 57.0013L24.629 52.8447C24.5091 52.7464 24.3276 52.813 24.2998 52.9655L23.1589 59.2204C23.1311 59.3729 23.2773 59.4993 23.4242 59.4497L29.6372 57.3515Z" stroke="#701A75" stroke-width="0.763063" stroke-linecap="round" stroke-linejoin="round"/>
</g>
<g clip-path="url(#clip27_8266_4685)">
<path d="M32.5583 41.3371C32.7097 41.2859 32.7458 41.0882 32.6221 40.9869L27.5501 36.8303C27.4302 36.732 27.2487 36.7986 27.2209 36.9511L26.08 43.206C26.0522 43.3585 26.1984 43.4849 26.3453 43.4353L32.5583 41.3371Z" stroke="#701A75" stroke-width="0.763063" stroke-linecap="round" stroke-linejoin="round"/>
</g>
<g clip-path="url(#clip28_8266_4685)">
<path d="M35.4794 25.3225C35.6308 25.2714 35.6669 25.0737 35.5432 24.9724L30.4712 20.8158C30.3512 20.7175 30.1698 20.7841 30.142 20.9366L29.0011 27.1914C28.9733 27.344 29.1195 27.4703 29.2664 27.4207L35.4794 25.3225Z" stroke="#701A75" stroke-width="0.763063" stroke-linecap="round" stroke-linejoin="round"/>
</g>
<g clip-path="url(#clip29_8266_4685)">
<path d="M38.4005 9.30814C38.5519 9.25699 38.5879 9.05928 38.4643 8.95796L33.3923 4.80135C33.2723 4.70305 33.0909 4.76966 33.0631 4.9222L31.9222 11.177C31.8944 11.3296 32.0406 11.4559 32.1875 11.4063L38.4005 9.30814Z" stroke="#701A75" stroke-width="0.763063" stroke-linecap="round" stroke-linejoin="round"/>
</g>
<g clip-path="url(#clip30_8266_4685)">
<path d="M7.78055 86.4593C7.93197 86.4081 7.96804 86.2104 7.84442 86.1091L2.77235 81.9525C2.65243 81.8542 2.47101 81.9208 2.44319 82.0733L1.30229 88.3281C1.27446 88.4807 1.42067 88.6071 1.56758 88.5574L7.78055 86.4593Z" stroke="#701A75" stroke-width="0.763063" stroke-linecap="round" stroke-linejoin="round"/>
</g>
<g clip-path="url(#clip31_8266_4685)">
<path d="M10.7016 70.4449C10.8531 70.3937 10.8891 70.196 10.7655 70.0947L5.69344 65.9381C5.57351 65.8398 5.39209 65.9064 5.36427 66.0589L4.22337 72.3137C4.19554 72.4663 4.34176 72.5927 4.48866 72.543L10.7016 70.4449Z" stroke="#701A75" stroke-width="0.763063" stroke-linecap="round" stroke-linejoin="round"/>
</g>
<g clip-path="url(#clip32_8266_4685)">
<path d="M13.6227 54.4305C13.7742 54.3793 13.8102 54.1816 13.6866 54.0803L8.61453 49.9237C8.4946 49.8254 8.31319 49.892 8.28537 50.0445L7.14446 56.2993C7.11664 56.4519 7.26285 56.5783 7.40976 56.5286L13.6227 54.4305Z" stroke="#701A75" stroke-width="0.763063" stroke-linecap="round" stroke-linejoin="round"/>
</g>
<g clip-path="url(#clip33_8266_4685)">
<path d="M16.5438 38.4159C16.6952 38.3648 16.7313 38.1671 16.6077 38.0657L11.5356 33.9091C11.4157 33.8108 11.2343 33.8774 11.2065 34.03L10.0656 40.2848C10.0377 40.4374 10.1839 40.5637 10.3309 40.5141L16.5438 38.4159Z" stroke="#701A75" stroke-width="0.763063" stroke-linecap="round" stroke-linejoin="round"/>
</g>
<g clip-path="url(#clip34_8266_4685)">
<path d="M19.4649 22.4015C19.6163 22.3504 19.6524 22.1527 19.5288 22.0513L14.4567 17.8947C14.3368 17.7964 14.1554 17.863 14.1276 18.0156L12.9867 24.2704C12.9588 24.423 13.105 24.5493 13.252 24.4997L19.4649 22.4015Z" stroke="#701A75" stroke-width="0.763063" stroke-linecap="round" stroke-linejoin="round"/>
</g>
<g clip-path="url(#clip35_8266_4685)">
<path d="M22.386 6.38712C22.5374 6.33597 22.5735 6.13826 22.4499 6.03694L17.3778 1.88033C17.2579 1.78203 17.0765 1.84864 17.0486 2.00118L15.9077 8.256C15.8799 8.40855 16.0261 8.53492 16.173 8.48531L22.386 6.38712Z" stroke="#701A75" stroke-width="0.763063" stroke-linecap="round" stroke-linejoin="round"/>
</g>
<defs>
<clipPath id="clip0_8266_4685">
<rect width="8.13934" height="8.13934" fill="white" transform="matrix(0.179443 -0.983768 -0.983768 -0.179443 88.1376 105.073)"/>
</clipPath>
<clipPath id="clip1_8266_4685">
<rect width="8.13934" height="8.13934" fill="white" transform="matrix(0.179443 -0.983768 -0.983768 -0.179443 91.0587 89.0582)"/>
</clipPath>
<clipPath id="clip2_8266_4685">
<rect width="8.13934" height="8.13934" fill="white" transform="matrix(0.179443 -0.983768 -0.983768 -0.179443 93.9798 73.0437)"/>
</clipPath>
<clipPath id="clip3_8266_4685">
<rect width="8.13934" height="8.13934" fill="white" transform="matrix(0.179443 -0.983768 -0.983768 -0.179443 96.9009 57.0293)"/>
</clipPath>
<clipPath id="clip4_8266_4685">
<rect width="8.13934" height="8.13934" fill="white" transform="matrix(0.179443 -0.983768 -0.983768 -0.179443 99.822 41.0149)"/>
</clipPath>
<clipPath id="clip5_8266_4685">
<rect width="8.13934" height="8.13934" fill="white" transform="matrix(0.179443 -0.983768 -0.983768 -0.179443 102.743 25.0004)"/>
</clipPath>
<clipPath id="clip6_8266_4685">
<rect width="8.13934" height="8.13934" fill="white" transform="matrix(0.179443 -0.983768 -0.983768 -0.179443 72.1232 102.151)"/>
</clipPath>
<clipPath id="clip7_8266_4685">
<rect width="8.13934" height="8.13934" fill="white" transform="matrix(0.179443 -0.983768 -0.983768 -0.179443 75.0443 86.1371)"/>
</clipPath>
<clipPath id="clip8_8266_4685">
<rect width="8.13934" height="8.13934" fill="white" transform="matrix(0.179443 -0.983768 -0.983768 -0.179443 77.9653 70.1227)"/>
</clipPath>
<clipPath id="clip9_8266_4685">
<rect width="8.13934" height="8.13934" fill="white" transform="matrix(0.179443 -0.983768 -0.983768 -0.179443 80.8864 54.1082)"/>
</clipPath>
<clipPath id="clip10_8266_4685">
<rect width="8.13934" height="8.13934" fill="white" transform="matrix(0.179443 -0.983768 -0.983768 -0.179443 83.8075 38.0938)"/>
</clipPath>
<clipPath id="clip11_8266_4685">
<rect width="8.13934" height="8.13934" fill="white" transform="matrix(0.179443 -0.983768 -0.983768 -0.179443 86.7286 22.0792)"/>
</clipPath>
<clipPath id="clip12_8266_4685">
<rect width="8.13934" height="8.13934" fill="white" transform="matrix(0.179443 -0.983768 -0.983768 -0.179443 56.1087 99.2305)"/>
</clipPath>
<clipPath id="clip13_8266_4685">
<rect width="8.13934" height="8.13934" fill="white" transform="matrix(0.179443 -0.983768 -0.983768 -0.179443 59.0298 83.2159)"/>
</clipPath>
<clipPath id="clip14_8266_4685">
<rect width="8.13934" height="8.13934" fill="white" transform="matrix(0.179443 -0.983768 -0.983768 -0.179443 61.9509 67.2015)"/>
</clipPath>
<clipPath id="clip15_8266_4685">
<rect width="8.13934" height="8.13934" fill="white" transform="matrix(0.179443 -0.983768 -0.983768 -0.179443 64.872 51.1871)"/>
</clipPath>
<clipPath id="clip16_8266_4685">
<rect width="8.13934" height="8.13934" fill="white" transform="matrix(0.179443 -0.983768 -0.983768 -0.179443 67.7931 35.1726)"/>
</clipPath>
<clipPath id="clip17_8266_4685">
<rect width="8.13934" height="8.13934" fill="white" transform="matrix(0.179443 -0.983768 -0.983768 -0.179443 70.7142 19.1582)"/>
</clipPath>
<clipPath id="clip18_8266_4685">
<rect width="8.13934" height="8.13934" fill="white" transform="matrix(0.179443 -0.983768 -0.983768 -0.179443 40.0943 96.3093)"/>
</clipPath>
<clipPath id="clip19_8266_4685">
<rect width="8.13934" height="8.13934" fill="white" transform="matrix(0.179443 -0.983768 -0.983768 -0.179443 43.0154 80.2949)"/>
</clipPath>
<clipPath id="clip20_8266_4685">
<rect width="8.13934" height="8.13934" fill="white" transform="matrix(0.179443 -0.983768 -0.983768 -0.179443 45.9364 64.2804)"/>
</clipPath>
<clipPath id="clip21_8266_4685">
<rect width="8.13934" height="8.13934" fill="white" transform="matrix(0.179443 -0.983768 -0.983768 -0.179443 48.8575 48.266)"/>
</clipPath>
<clipPath id="clip22_8266_4685">
<rect width="8.13934" height="8.13934" fill="white" transform="matrix(0.179443 -0.983768 -0.983768 -0.179443 51.7786 32.2516)"/>
</clipPath>
<clipPath id="clip23_8266_4685">
<rect width="8.13934" height="8.13934" fill="white" transform="matrix(0.179443 -0.983768 -0.983768 -0.179443 54.6997 16.2371)"/>
</clipPath>
<clipPath id="clip24_8266_4685">
<rect width="8.13934" height="8.13934" fill="white" transform="matrix(0.179443 -0.983768 -0.983768 -0.179443 24.0798 93.3882)"/>
</clipPath>
<clipPath id="clip25_8266_4685">
<rect width="8.13934" height="8.13934" fill="white" transform="matrix(0.179443 -0.983768 -0.983768 -0.179443 27.0009 77.3738)"/>
</clipPath>
<clipPath id="clip26_8266_4685">
<rect width="8.13934" height="8.13934" fill="white" transform="matrix(0.179443 -0.983768 -0.983768 -0.179443 29.922 61.3594)"/>
</clipPath>
<clipPath id="clip27_8266_4685">
<rect width="8.13934" height="8.13934" fill="white" transform="matrix(0.179443 -0.983768 -0.983768 -0.179443 32.8431 45.3448)"/>
</clipPath>
<clipPath id="clip28_8266_4685">
<rect width="8.13934" height="8.13934" fill="white" transform="matrix(0.179443 -0.983768 -0.983768 -0.179443 35.7642 29.3304)"/>
</clipPath>
<clipPath id="clip29_8266_4685">
<rect width="8.13934" height="8.13934" fill="white" transform="matrix(0.179443 -0.983768 -0.983768 -0.179443 38.6853 13.316)"/>
</clipPath>
<clipPath id="clip30_8266_4685">
<rect width="8.13934" height="8.13934" fill="white" transform="matrix(0.179443 -0.983768 -0.983768 -0.179443 8.06537 90.4672)"/>
</clipPath>
<clipPath id="clip31_8266_4685">
<rect width="8.13934" height="8.13934" fill="white" transform="matrix(0.179443 -0.983768 -0.983768 -0.179443 10.9865 74.4528)"/>
</clipPath>
<clipPath id="clip32_8266_4685">
<rect width="8.13934" height="8.13934" fill="white" transform="matrix(0.179443 -0.983768 -0.983768 -0.179443 13.9076 58.4382)"/>
</clipPath>
<clipPath id="clip33_8266_4685">
<rect width="8.13934" height="8.13934" fill="white" transform="matrix(0.179443 -0.983768 -0.983768 -0.179443 16.8286 42.4238)"/>
</clipPath>
<clipPath id="clip34_8266_4685">
<rect width="8.13934" height="8.13934" fill="white" transform="matrix(0.179443 -0.983768 -0.983768 -0.179443 19.7497 26.4094)"/>
</clipPath>
<clipPath id="clip35_8266_4685">
<rect width="8.13934" height="8.13934" fill="white" transform="matrix(0.179443 -0.983768 -0.983768 -0.179443 22.6708 10.3949)"/>
</clipPath>
</defs>
</svg>
